<svg width="162" height="251" viewBox="0 0 162 251" fill="none" xmlns="http://www.w3.org/2000/svg">
<path d="M130 6H32C17.6406 6 6 17.6406 6 32V219C6 233.359 17.6406 245 32 245H130C144.359 245 156 233.359 156 219V32C156 17.6406 144.359 6 130 6Z" stroke="#424242" stroke-opacity="0.2" stroke-width="12"/>
<line x1="35" y1="164" x2="127" y2="164" stroke="#424242" stroke-opacity="0.2" stroke-width="8" stroke-linecap="round"/>
<line x1="35" y1="193" x2="127" y2="193" stroke="#424242" stroke-opacity="0.2" stroke-width="8" stroke-linecap="round"/>
<g opacity="0.2">
<path d="M131 77.952C131 51.48 109.496 30 83 30C56.504 30 35 51.48 35 77.952C35 92.532 41.624 105.672 51.992 114.492C52.088 114.588 52.184 114.588 52.184 114.684C53.048 115.356 53.912 116.028 54.872 116.7C55.352 116.988 55.736 117.366 56.216 117.75C64.1484 123.128 73.5123 126.002 83.096 126C92.6797 126.002 102.044 123.128 109.976 117.75C110.456 117.462 110.84 117.084 111.32 116.79C112.184 116.124 113.144 115.452 114.008 114.78C114.104 114.684 114.2 114.684 114.2 114.588C124.376 105.666 131 92.532 131 77.952V77.952ZM83 119.958C73.976 119.958 65.72 117.078 58.904 112.284C59 111.516 59.192 110.754 59.384 109.986C59.956 107.905 60.795 105.906 61.88 104.04C62.936 102.216 64.184 100.584 65.72 99.144C67.16 97.704 68.888 96.366 70.616 95.31C72.44 94.254 74.36 93.486 76.472 92.91C78.6004 92.3363 80.7956 92.0478 83 92.052C89.5439 92.0057 95.8474 94.5158 100.568 99.048C102.776 101.256 104.504 103.848 105.752 106.818C106.424 108.546 106.904 110.37 107.192 112.284C100.107 117.265 91.6606 119.944 83 119.958ZM68.312 75.558C67.4661 73.6213 67.0408 71.5272 67.064 69.414C67.064 67.308 67.448 65.196 68.312 63.276C69.176 61.356 70.328 59.634 71.768 58.194C73.208 56.754 74.936 55.608 76.856 54.744C78.776 53.88 80.888 53.496 83 53.496C85.208 53.496 87.224 53.88 89.144 54.744C91.064 55.608 92.792 56.76 94.232 58.194C95.672 59.634 96.824 61.362 97.688 63.276C98.552 65.196 98.936 67.308 98.936 69.414C98.936 71.622 98.552 73.638 97.688 75.552C96.8542 77.4436 95.6831 79.1677 94.232 80.64C92.7592 82.0889 91.0351 83.258 89.144 84.09C85.177 85.7203 80.727 85.7203 76.76 84.09C74.8689 83.258 73.1448 82.0889 71.672 80.64C70.2189 79.1891 69.0758 77.4581 68.312 75.552V75.558ZM112.856 107.394C112.856 107.202 112.76 107.106 112.76 106.914C111.816 103.911 110.424 101.067 108.632 98.478C106.838 95.8703 104.634 93.5705 102.104 91.668C100.172 90.2147 98.0781 88.9905 95.864 88.02C96.8713 87.3555 97.8046 86.5851 98.648 85.722C100.079 84.309 101.336 82.7298 102.392 81.018C104.518 77.5249 105.616 73.5029 105.56 69.414C105.59 66.3871 105.002 63.3859 103.832 60.594C102.677 57.9038 101.015 55.4613 98.936 53.4C96.8602 51.3602 94.4173 49.7315 91.736 48.6C88.9394 47.4324 85.9344 46.8465 82.904 46.878C79.8732 46.8484 76.8681 47.4363 74.072 48.606C71.3675 49.7351 68.9187 51.3983 66.872 53.496C64.8322 55.5695 63.2036 58.0105 62.072 60.69C60.9023 63.4819 60.3143 66.4831 60.344 69.51C60.344 71.622 60.632 73.638 61.208 75.552C61.784 77.568 62.552 79.392 63.608 81.114C64.568 82.842 65.912 84.378 67.352 85.818C68.216 86.682 69.176 87.444 70.232 88.116C68.011 89.1124 65.9163 90.3692 63.992 91.86C61.496 93.78 59.288 96.078 57.464 98.574C55.6536 101.152 54.2605 103.999 53.336 107.01C53.24 107.202 53.24 107.394 53.24 107.49C45.656 99.816 40.952 89.46 40.952 77.952C40.952 54.84 59.864 35.946 83 35.946C106.136 35.946 125.048 54.84 125.048 77.952C125.035 88.9917 120.652 99.5774 112.856 107.394V107.394Z" fill="#424242"/>
</g>
</svg>
