<svg width="107" height="107" viewBox="0 0 107 107" fill="none" xmlns="http://www.w3.org/2000/svg">
<path d="M86.7118 6.31567C88.363 6.1712 90.0041 6.68862 91.2739 7.7541C92.5437 8.81959 93.3382 10.3459 93.4827 11.9972L100.019 86.7118C100.164 88.3631 99.6464 90.0041 98.5809 91.2739C97.5155 92.5437 95.9892 93.3382 94.3379 93.4827L19.6233 100.019C17.972 100.164 16.3309 99.6464 15.0611 98.5809C13.7913 97.5155 12.9968 95.9892 12.8523 94.3379L6.31566 19.6233C6.17119 17.972 6.68862 16.3309 7.7541 15.0611C8.81959 13.7913 10.3459 12.9968 11.9972 12.8523L86.7118 6.31567ZM11.4524 6.62613C8.14984 6.91507 5.0973 8.50412 2.96633 11.0437C0.835352 13.5833 -0.199492 16.8654 0.0894468 20.168L6.62613 94.8826C6.91507 98.1852 8.50412 101.238 11.0437 103.369C13.5833 105.5 16.8654 106.535 20.168 106.246L94.8826 99.7089C98.1852 99.42 101.238 97.8309 103.369 95.2913C105.5 92.7517 106.535 89.4696 106.246 86.167L99.7089 11.4524C99.42 8.14984 97.8309 5.0973 95.2913 2.96633C92.7517 0.835354 89.4696 -0.199491 86.167 0.0894485L11.4524 6.62613Z" fill="#424242" fill-opacity="0.1"/>
</svg>
