<svg width="163" height="163" viewBox="0 0 163 163" fill="none" xmlns="http://www.w3.org/2000/svg">
<path d="M122.158 11.6559C124.444 11.2529 126.796 11.7743 128.697 13.1054C130.598 14.4364 131.892 16.4682 132.295 18.7535L150.528 122.158C150.931 124.444 150.409 126.796 149.078 128.697C147.747 130.598 145.716 131.892 143.43 132.295L40.0255 150.528C37.7401 150.931 35.3882 150.409 33.4872 149.078C31.5863 147.747 30.2919 145.716 29.889 143.43L11.6559 40.0254C11.2529 37.7401 11.7743 35.3882 13.1054 33.4872C14.4365 31.5863 16.4682 30.2919 18.7536 29.889L122.158 11.6559ZM17.2341 21.2719C12.6634 22.0778 8.59995 24.6665 5.93782 28.4684C3.27568 32.2704 2.23289 36.9741 3.03884 41.5449L21.2719 144.95C22.0779 149.52 24.6665 153.584 28.4684 156.246C32.2704 158.908 36.9741 159.951 41.5449 159.145L144.95 140.912C149.52 140.106 153.584 137.517 156.246 133.715C158.908 129.913 159.951 125.21 159.145 120.639L140.912 17.2341C140.106 12.6633 137.517 8.59994 133.715 5.9378C129.913 3.27567 125.21 2.23288 120.639 3.03883L17.2341 21.2719Z" fill="#424242" fill-opacity="0.1"/>
</svg>
