<svg width="214" height="214" viewBox="0 0 214 214" fill="none" xmlns="http://www.w3.org/2000/svg">
<path d="M189.34 26.3696C192.643 26.6586 195.695 28.2476 197.826 30.7872C199.957 33.3268 200.992 36.6089 200.703 39.9115L187.63 189.341C187.341 192.643 185.752 195.696 183.212 197.827C180.673 199.958 177.391 200.993 174.088 200.704L24.6589 187.63C21.3563 187.341 18.3037 185.752 16.1728 183.213C14.0418 180.673 13.0069 177.391 13.2959 174.088L26.3692 24.6593C26.6582 21.3567 28.2472 18.3041 30.7868 16.1732C33.3264 14.0422 36.6085 13.0073 39.9111 13.2963L189.34 26.3696ZM41.0006 0.843841C34.3954 0.265963 27.8312 2.33565 22.752 6.5976C17.6728 10.8595 14.4947 16.9646 13.9168 23.5698L0.843448 172.999C0.265569 179.604 2.33526 186.168 6.59721 191.248C10.8592 196.327 16.9642 199.505 23.5694 200.083L172.999 213.156C179.604 213.734 186.168 211.664 191.247 207.402C196.326 203.14 199.505 197.035 200.082 190.43L213.156 41.001C213.734 34.3958 211.664 27.8316 207.402 22.7524C203.14 17.6732 197.035 14.4951 190.43 13.9172L41.0006 0.843841Z" fill="#424242" fill-opacity="0.1"/>
</svg>
