<svg width="177" height="158" viewBox="0 0 177 158" fill="none" xmlns="http://www.w3.org/2000/svg">
<path d="M109.296 24.165C108.983 23.1201 108.387 22.1617 107.566 21.3864C106.744 20.611 105.728 20.0463 104.619 19.7491C103.51 19.4519 102.347 19.4328 101.248 19.6937C100.15 19.9545 99.1536 20.4862 98.3608 21.235L3.76942 110.575C2.97907 111.322 2.41852 112.258 2.14402 113.289C1.86952 114.321 1.89072 115.412 2.20549 116.452C2.52025 117.493 3.11752 118.447 3.93737 119.219C4.75723 119.991 5.77084 120.553 6.87654 120.849L138.716 156.175C139.822 156.472 140.981 156.492 142.077 156.233C143.172 155.975 144.167 155.447 144.96 154.703C145.753 153.959 146.316 153.025 146.595 151.995C146.873 150.964 146.855 149.874 146.544 148.832L109.296 24.165ZM15.9339 113.193L101.146 32.7112L134.701 145.016L15.9339 113.193Z" fill="#424242" fill-opacity="0.1"/>
</svg>
