<svg width="231" height="202" viewBox="0 0 231 202" fill="none" xmlns="http://www.w3.org/2000/svg">
<path d="M109.358 20.6936C108.369 19.5804 107.077 18.7384 105.613 18.2526C104.148 17.7668 102.564 17.6544 101.02 17.9268C99.4751 18.1991 98.0249 18.8466 96.8153 19.8038C95.6058 20.761 94.6797 21.9941 94.1305 23.3786L28.6066 188.576C28.0591 189.956 27.9055 191.438 28.1611 192.873C28.4168 194.309 29.0727 195.647 30.0631 196.754C31.0536 197.86 32.3437 198.697 33.804 199.179C35.2644 199.661 36.8437 199.772 38.3835 199.5L221.98 167.127C223.52 166.855 224.966 166.211 226.173 165.259C227.381 164.306 228.307 163.079 228.859 161.701C229.411 160.322 229.57 158.84 229.319 157.404C229.069 155.968 228.418 154.628 227.431 153.518L109.358 20.6936ZM45.176 184.794L104.203 35.9775L210.568 155.631L45.176 184.794Z" fill="#424242" fill-opacity="0.1"/>
</svg>
