<svg width="26" height="39" viewBox="0 0 26 39" fill="none" xmlns="http://www.w3.org/2000/svg">
<path d="M25.0708 0.223687C24.7909 0.0580686 24.4759 -0.0180494 24.1602 0.00360968C23.8444 0.0252687 23.54 0.143876 23.28 0.346535L0.74366 17.8962C0.514065 18.0764 0.326558 18.3164 0.197085 18.5956C0.0676116 18.8748 0 19.1851 0 19.5C0 19.815 0.0676116 20.1253 0.197085 20.4045C0.326558 20.6837 0.514065 20.9237 0.74366 21.1039L23.28 38.6536C23.5401 38.856 23.8445 38.9745 24.1601 38.9963C24.4758 39.0181 24.7908 38.9424 25.0709 38.7773C25.3511 38.6122 25.5857 38.3641 25.7495 38.0597C25.9133 37.7554 25.9999 37.4064 26 37.0507V1.95135C26.0001 1.59541 25.9135 1.24625 25.7497 0.941699C25.5859 0.637152 25.3511 0.388843 25.0708 0.223687ZM22.5329 33.3282L4.77594 19.501L22.5329 5.67383V33.3282Z" fill="white"/>
</svg>
