<svg width="126" height="126" viewBox="0 0 126 126" fill="none" xmlns="http://www.w3.org/2000/svg">
<path d="M95.8267 7.33404C97.6569 7.01132 99.5403 7.42887 101.063 8.49481C102.585 9.56075 103.621 11.1878 103.944 13.018L118.546 95.8265C118.868 97.6566 118.451 99.5401 117.385 101.062C116.319 102.585 114.692 103.621 112.862 103.944L30.0531 118.545C28.2229 118.868 26.3395 118.45 24.8172 117.385C23.2949 116.319 22.2584 114.692 21.9356 112.861L7.33427 30.0529C7.01156 28.2227 7.4291 26.3393 8.49505 24.817C9.56099 23.2946 11.188 22.2581 13.0182 21.9354L95.8267 7.33404ZM11.8014 15.0347C8.14105 15.6801 4.887 17.7532 2.75512 20.7978C0.623229 23.8425 -0.211859 27.6093 0.433562 31.2697L15.0349 114.078C15.6804 117.739 17.7534 120.993 20.7981 123.124C23.8427 125.256 27.6095 126.091 31.2699 125.446L114.078 110.845C117.739 110.199 120.993 108.126 123.125 105.082C125.257 102.037 126.092 98.27 125.446 94.6097L110.845 11.8012C110.199 8.14082 108.126 4.88677 105.082 2.75488C102.037 0.622996 98.2703 -0.212094 94.6099 0.433328L11.8014 15.0347Z" fill="#424242" fill-opacity="0.1"/>
</svg>
