<svg width="117" height="106" viewBox="0 0 117 106" fill="none" xmlns="http://www.w3.org/2000/svg">
<path d="M73.5908 3.82148C73.2366 3.02607 72.6722 2.3311 71.9546 1.80671C71.2369 1.28232 70.3914 0.947066 69.5034 0.834773C68.6153 0.722481 67.7162 0.837126 66.8967 1.16714C66.0771 1.49716 65.3662 2.03086 64.8357 2.7144L1.53698 84.2711C1.00808 84.9525 0.677057 85.7588 0.577114 86.6091C0.477172 87.4595 0.611823 88.324 0.967561 89.1159C1.3233 89.9078 1.88761 90.5992 2.6039 91.1209C3.32019 91.6425 4.16326 91.9761 5.04855 92.088L110.607 105.436C111.493 105.548 112.389 105.434 113.206 105.106C114.024 104.779 114.734 104.248 115.265 103.569C115.796 102.889 116.13 102.084 116.233 101.234C116.336 100.384 116.204 99.5192 115.851 98.7262L73.5908 3.82148ZM11.2069 84.9926L68.2291 11.5228L106.299 97.0169L11.2069 84.9926Z" fill="#424242" fill-opacity="0.1"/>
</svg>
