<svg width="162" height="167" viewBox="0 0 162 167" fill="none" xmlns="http://www.w3.org/2000/svg">
<path d="M42.3475 2.56534C41.3694 1.75813 40.1833 1.22755 38.9088 1.02716C37.6343 0.82676 36.3165 0.963632 35.0884 1.42396C33.8603 1.88429 32.7654 2.65179 31.9141 3.649C31.0629 4.64621 30.4854 5.83786 30.24 7.10368L0.958853 158.135C0.714163 159.396 0.808097 160.688 1.23122 161.879C1.65435 163.07 2.39179 164.118 3.36957 164.92C4.34736 165.721 5.53111 166.247 6.80208 166.445C8.07305 166.643 9.38655 166.505 10.6108 166.046L156.589 111.329C157.814 110.87 158.905 110.105 159.756 109.113C160.606 108.12 161.184 106.933 161.433 105.672C161.682 104.411 161.592 103.119 161.173 101.927C160.754 100.735 160.02 99.6834 159.045 98.8787L42.3475 2.56534ZM14.0055 152.46L40.3831 16.4053L145.509 103.168L14.0055 152.46Z" fill="#424242" fill-opacity="0.1"/>
</svg>
