<svg width="50" height="50" viewBox="0 0 50 50" fill="none" xmlns="http://www.w3.org/2000/svg">
<path d="M19.9854 22.8564C18.8563 22.8564 17.9667 23.846 17.9667 25.0544C17.9667 26.2585 18.8771 27.2523 19.9854 27.2523C21.1125 27.2523 22.0021 26.2585 22.0021 25.0544C22.025 23.8439 21.1125 22.8564 19.9854 22.8564ZM27.2104 22.8564C26.0813 22.8564 25.1917 23.846 25.1917 25.0544C25.1917 26.2585 26.1021 27.2523 27.2104 27.2523C28.3375 27.2523 29.2271 26.2585 29.2271 25.0544C29.225 23.8439 28.3375 22.8564 27.2104 22.8564Z" fill="#7289DA"/>
<path d="M36.8292 6.25H10.3063C9.77222 6.25137 9.24368 6.35791 8.75081 6.56354C8.25794 6.76917 7.8104 7.06987 7.43374 7.44846C7.05708 7.82705 6.75868 8.27613 6.55558 8.77004C6.35248 9.26396 6.24864 9.79304 6.25001 10.3271V37.0854C6.25001 39.3417 8.07085 41.1625 10.3063 41.1625H32.75L31.6979 37.4979L34.2333 39.8542L36.6271 42.0708L40.8854 45.8333V10.3271C40.8868 9.79304 40.783 9.26396 40.5799 8.77004C40.3768 8.27613 40.0784 7.82705 39.7017 7.44846C39.325 7.06987 38.8775 6.76917 38.3846 6.56354C37.8918 6.35791 37.3632 6.25137 36.8292 6.25ZM29.1875 32.0979C29.1875 32.0979 28.475 31.2479 27.8833 30.4917C30.475 29.7583 31.4646 28.1375 31.4646 28.1375C30.6521 28.6708 29.8813 29.05 29.1875 29.3083C26.6619 30.3654 23.8805 30.6538 21.1917 30.1375C20.1981 29.9423 19.2246 29.6564 18.2833 29.2833C17.7869 29.0948 17.3045 28.8713 16.8396 28.6146C16.7792 28.5708 16.7208 28.5542 16.6625 28.5146C16.6313 28.4997 16.6036 28.4784 16.5813 28.4521C16.225 28.2563 16.0271 28.1188 16.0271 28.1188C16.0271 28.1188 16.9771 29.7021 19.4917 30.4542C18.8979 31.2042 18.1646 32.0979 18.1646 32.0979C13.7917 31.9583 12.1313 29.0896 12.1313 29.0896C12.1313 22.7167 14.9813 17.5521 14.9813 17.5521C17.8313 15.4125 20.5417 15.4729 20.5417 15.4729L20.7396 15.7104C17.1771 16.7417 15.5333 18.3042 15.5333 18.3042C15.5333 18.3042 15.9708 18.0667 16.7021 17.7312C18.8188 16.8021 20.5 16.5438 21.1938 16.4833C21.3125 16.4646 21.4125 16.4438 21.5313 16.4438C24.9629 15.9813 28.4524 16.6335 31.4854 18.3042C31.4854 18.3042 29.9208 16.8208 26.5563 15.7917L26.8333 15.475C26.8333 15.475 29.5458 15.4146 32.3938 17.5542C32.3938 17.5542 35.2438 22.7188 35.2438 29.0917C35.2438 29.0896 33.5625 31.9583 29.1875 32.0979Z" fill="#7289DA"/>
</svg>
