<svg width="50" height="50" viewBox="0 0 50 50" fill="none" xmlns="http://www.w3.org/2000/svg">
<path d="M4.54545 0C2.05909 0 0 2.05909 0 4.54545L0 45.4545C0 47.9409 2.05909 50 4.54545 50H45.4545C47.9409 50 50 47.9409 50 45.4545V4.54545C50 2.05909 47.9409 0 45.4545 0L4.54545 0ZM4.54545 4.54545H45.4545V45.4545H33.6636V30.1136H39.5591L40.4114 23.2955H33.6659V18.8909C33.6659 16.9045 34.1523 15.5545 37.0023 15.5545H40.6955V9.375C40.0659 9.29545 37.8818 9.16136 35.3704 9.16136C30.1318 9.16136 26.5636 12.3136 26.5636 18.1818V23.2955H20.5977V30.1136H26.5614V45.4545H4.54545V4.54545Z" fill="#424242"/>
</svg>
