<svg width="164" height="166" viewBox="0 0 164 166" fill="none" xmlns="http://www.w3.org/2000/svg">
<path d="M12.5455 16C10.0591 16 8 18.0591 8 20.5455V61.4545C8 63.9409 10.0591 66 12.5455 66H53.4545C55.9409 66 58 63.9409 58 61.4545V20.5455C58 18.0591 55.9409 16 53.4545 16H12.5455ZM12.5455 20.5455H53.4545V61.4545H41.6636V46.1136H47.5591L48.4114 39.2955H41.6659V34.8909C41.6659 32.9045 42.1523 31.5545 45.0023 31.5545H48.6955V25.375C48.0659 25.2955 45.8818 25.1614 43.3704 25.1614C38.1318 25.1614 34.5636 28.3136 34.5636 34.1818V39.2955H28.5977V46.1136H34.5614V61.4545H12.5455V20.5455Z" fill="#424242"/>
<path d="M90.2773 16.1792C87.8197 16.1891 85.4656 17.1988 83.7278 18.9884C81.9901 20.7781 81.0096 23.2025 81 25.7333V58.1172C81.0096 60.6481 81.9901 63.0725 83.7278 64.8622C85.4656 66.6518 87.8197 67.6615 90.2773 67.6714H121.723C124.18 67.6615 126.534 66.6518 128.272 64.8622C130.01 63.0725 130.99 60.6481 131 58.1172V25.7333C130.99 23.2025 130.01 20.7781 128.272 18.9884C126.534 17.1988 124.18 16.1891 121.723 16.1792H90.2773ZM90.2773 20.8603H121.723C124.359 20.8603 126.455 23.0183 126.455 25.7333V58.1172C126.455 60.8323 124.359 62.9903 121.723 62.9903H90.2773C89.6548 62.9943 89.0377 62.871 88.4619 62.6276C87.886 62.3841 87.3628 62.0253 86.9226 61.572C86.4825 61.1187 86.1341 60.5799 85.8977 59.9868C85.6612 59.3938 85.5415 58.7583 85.5455 58.1172V25.7333C85.5455 23.0183 87.6409 20.8603 90.2773 20.8603ZM105.361 33.1014C103.691 33.085 102.27 33.1014 101.473 33.504C100.939 33.7708 100.532 34.3723 100.78 34.4004C101.091 34.4472 101.791 34.6017 102.166 35.1236C102.643 35.7907 102.627 37.3004 102.627 37.3004C102.627 37.3004 102.893 41.4502 101.977 41.9721C101.348 42.3279 100.486 41.6046 98.6227 38.3045C97.6727 36.6052 96.9545 34.7304 96.9545 34.7304C96.9545 34.7304 96.8182 34.3817 96.5727 34.1991C96.2705 33.9721 95.8523 33.8972 95.8523 33.8972L91.4045 33.9253C91.4045 33.9253 90.7386 33.9534 90.5 34.2459C90.2773 34.5198 90.4818 35.0581 90.4818 35.0581C90.4818 35.0581 93.9614 43.442 97.9023 47.6667C101.516 51.545 105.618 51.2875 105.618 51.2875H107.482C107.482 51.2875 108.041 51.2243 108.325 50.913C108.593 50.6205 108.584 50.0704 108.584 50.0704C108.584 50.0704 108.548 47.5028 109.702 47.119C110.848 46.7515 112.302 49.6047 113.857 50.7024C115.039 51.5333 115.934 51.3507 115.934 51.3507L120.091 51.2875C120.091 51.2875 122.257 51.1494 121.227 49.3846C121.148 49.2489 120.632 48.088 118.148 45.71C115.536 43.2243 115.884 43.6269 119.025 39.3203C120.934 36.6965 121.698 35.0956 121.457 34.4004C121.23 33.7521 119.825 33.9253 119.825 33.9253L115.145 33.9534C115.145 33.9534 114.8 33.9066 114.543 34.0634C114.367 34.1984 114.226 34.3771 114.134 34.583C114.134 34.583 113.389 36.6122 112.402 38.3419C110.325 41.9791 109.482 42.1804 109.145 41.9534C108.355 41.4221 108.55 39.8305 108.55 38.707C108.55 35.1681 109.073 33.7053 107.539 33.3238C107.032 33.195 106.659 33.1131 105.364 33.1014H105.361Z" fill="#424242"/>
<path d="M46.35 97.1768C45.7567 97.1768 45.1766 97.358 44.6833 97.6975C44.1899 98.037 43.8054 98.5195 43.5784 99.084C43.3513 99.6486 43.2919 100.27 43.4076 100.869C43.5234 101.468 43.8091 102.019 44.2287 102.451C44.6482 102.883 45.1828 103.177 45.7647 103.297C46.3467 103.416 46.9499 103.355 47.4981 103.121C48.0462 102.887 48.5148 102.491 48.8444 101.983C49.1741 101.475 49.35 100.877 49.35 100.266C49.35 99.4469 49.0339 98.6611 48.4713 98.0817C47.9087 97.5023 47.1456 97.1768 46.35 97.1768V97.1768ZM57.85 103.407C57.8014 101.271 57.4129 99.1577 56.7 97.151C56.0643 95.4341 55.075 93.8794 53.8 92.5939C52.5621 91.2742 51.0489 90.2618 49.375 89.6331C47.4316 88.8766 45.3771 88.4673 43.3 88.423C40.65 88.2686 39.8 88.2686 33 88.2686C26.2 88.2686 25.35 88.2686 22.7 88.423C20.6229 88.4673 18.5684 88.8766 16.625 89.6331C14.9542 90.2681 13.4423 91.2797 12.2 92.5939C10.9186 93.8688 9.93544 95.4272 9.325 97.151C8.5904 99.1524 8.19302 101.268 8.15 103.407C8 106.137 8 107.012 8 114.015C8 121.018 8 121.893 8.15 124.622C8.19302 126.762 8.5904 128.877 9.325 130.879C9.93544 132.603 10.9186 134.161 12.2 135.436C13.4423 136.75 14.9542 137.762 16.625 138.397C18.5684 139.153 20.6229 139.562 22.7 139.607C25.35 139.761 26.2 139.761 33 139.761C39.8 139.761 40.65 139.761 43.3 139.607C45.3771 139.562 47.4316 139.153 49.375 138.397C51.0489 137.768 52.5621 136.756 53.8 135.436C55.0806 134.155 56.0708 132.599 56.7 130.879C57.4129 128.872 57.8014 126.759 57.85 124.622C57.85 121.893 58 121.018 58 114.015C58 107.012 58 106.137 57.85 103.407V103.407ZM53.35 124.313C53.3318 125.948 53.0444 127.567 52.5 129.102C52.1008 130.223 51.4597 131.235 50.625 132.063C49.8141 132.914 48.8331 133.573 47.75 133.994C46.2593 134.555 44.6869 134.851 43.1 134.869C40.6 134.998 39.675 135.024 33.1 135.024C26.525 135.024 25.6 135.024 23.1 134.869C21.4522 134.901 19.8115 134.64 18.25 134.097C17.2145 133.654 16.2784 132.997 15.5 132.166C14.6702 131.339 14.0371 130.326 13.65 129.205C13.0396 127.648 12.7011 125.992 12.65 124.313C12.65 121.739 12.5 120.786 12.5 114.015C12.5 107.244 12.5 106.291 12.65 103.716C12.6612 102.046 12.9574 100.39 13.525 98.8246C13.9651 97.7378 14.6407 96.7691 15.5 95.9925C16.2595 95.1072 17.1982 94.4042 18.25 93.9327C19.7739 93.3664 21.38 93.0705 23 93.0574C25.5 93.0574 26.425 92.9029 33 92.9029C39.575 92.9029 40.5 92.9029 43 93.0574C44.5869 93.0761 46.1593 93.3721 47.65 93.9327C48.7861 94.367 49.8057 95.0729 50.625 95.9925C51.4443 96.7833 52.0844 97.7502 52.5 98.8246C53.0556 100.392 53.3432 102.047 53.35 103.716C53.475 106.291 53.5 107.244 53.5 114.015C53.5 120.786 53.475 121.739 53.35 124.313ZM33 100.807C30.4645 100.812 27.9874 101.591 25.8816 103.045C23.7759 104.5 22.1359 106.564 21.1691 108.978C20.2022 111.392 19.9518 114.047 20.4495 116.607C20.9472 119.168 22.1706 121.519 23.9652 123.363C25.7598 125.208 28.045 126.463 30.5321 126.971C33.0193 127.478 35.5967 127.215 37.9387 126.215C40.2807 125.214 42.2822 123.522 43.6903 121.35C45.0984 119.179 45.85 116.626 45.85 114.015C45.8533 112.277 45.523 110.556 44.8781 108.95C44.2332 107.345 43.2864 105.886 42.0922 104.659C40.898 103.431 39.4799 102.459 37.9195 101.798C36.3591 101.137 34.6872 100.8 33 100.807V100.807ZM33 122.588C31.3535 122.588 29.7439 122.086 28.3749 121.144C27.0058 120.201 25.9388 118.862 25.3087 117.296C24.6786 115.729 24.5137 114.005 24.835 112.342C25.1562 110.679 25.9491 109.152 27.1133 107.952C28.2776 106.753 29.761 105.937 31.3759 105.606C32.9908 105.275 34.6646 105.445 36.1858 106.094C37.707 106.743 39.0072 107.842 39.922 109.252C40.8367 110.662 41.325 112.319 41.325 114.015C41.325 115.141 41.1097 116.256 40.6913 117.296C40.2729 118.336 39.6597 119.281 38.8867 120.077C38.1136 120.873 37.1959 121.505 36.1858 121.936C35.1758 122.367 34.0933 122.588 33 122.588V122.588Z" fill="#424242"/>
<path d="M117.917 103.857L113.692 124.377C113.373 125.825 112.542 126.185 111.361 125.504L104.923 120.618L101.817 123.695C101.473 124.049 101.186 124.345 100.523 124.345L100.986 117.593L112.917 106.491C113.436 106.015 112.804 105.75 112.111 106.227L97.3612 115.792L91.0112 113.745C89.6302 113.301 89.6052 112.323 91.2992 111.64L116.136 101.785C117.286 101.342 118.292 102.049 117.917 103.858V103.857Z" fill="#424242"/>
<path d="M106 139.761C119.807 139.761 131 128.234 131 114.015C131 99.7956 119.807 88.2686 106 88.2686C92.1929 88.2686 81 99.7956 81 114.015C81 128.234 92.1929 139.761 106 139.761Z" stroke="#424242" stroke-width="5"/>
<line x1="160" y1="146" x2="160" y2="4" stroke="#424242" stroke-opacity="0.2" stroke-width="8" stroke-linecap="round"/>
<line x1="4" y1="162" x2="146" y2="162" stroke="#424242" stroke-opacity="0.2" stroke-width="8" stroke-linecap="round"/>
</svg>
