<svg width="90" height="255" viewBox="0 0 90 255" fill="none" xmlns="http://www.w3.org/2000/svg">
<path d="M29.2773 33.1792C26.8197 33.1891 24.4656 34.1988 22.7278 35.9884C20.9901 37.7781 20.0096 40.2025 20 42.7333V75.1172C20.0096 77.6481 20.9901 80.0725 22.7278 81.8622C24.4656 83.6518 26.8197 84.6615 29.2773 84.6714H60.7227C63.1803 84.6615 65.5344 83.6518 67.2722 81.8622C69.0099 80.0725 69.9904 77.6481 70 75.1172V42.7333C69.9904 40.2025 69.0099 37.7781 67.2722 35.9884C65.5344 34.1988 63.1803 33.1891 60.7227 33.1792H29.2773ZM29.2773 37.8603H60.7227C63.3591 37.8603 65.4545 40.0183 65.4545 42.7333V75.1172C65.4545 77.8323 63.3591 79.9903 60.7227 79.9903H29.2773C28.6548 79.9943 28.0377 79.871 27.4619 79.6276C26.886 79.3841 26.3628 79.0253 25.9226 78.572C25.4825 78.1187 25.1341 77.5799 24.8977 76.9868C24.6612 76.3938 24.5415 75.7583 24.5455 75.1172V42.7333C24.5455 40.0183 26.6409 37.8603 29.2773 37.8603ZM44.3614 50.1014C42.6909 50.085 41.2705 50.1014 40.4727 50.504C39.9386 50.7708 39.5318 51.3723 39.7795 51.4004C40.0909 51.4472 40.7909 51.6017 41.1659 52.1236C41.6432 52.7907 41.6273 54.3004 41.6273 54.3004C41.6273 54.3004 41.8932 58.4502 40.9773 58.9721C40.3477 59.3279 39.4864 58.6046 37.6227 55.3045C36.6727 53.6052 35.9545 51.7304 35.9545 51.7304C35.9545 51.7304 35.8182 51.3817 35.5727 51.1991C35.2705 50.9721 34.8523 50.8972 34.8523 50.8972L30.4045 50.9253C30.4045 50.9253 29.7386 50.9534 29.5 51.2459C29.2773 51.5198 29.4818 52.0581 29.4818 52.0581C29.4818 52.0581 32.9614 60.442 36.9023 64.6667C40.5159 68.545 44.6182 68.2875 44.6182 68.2875H46.4818C46.4818 68.2875 47.0409 68.2243 47.325 67.913C47.5932 67.6205 47.5841 67.0704 47.5841 67.0704C47.5841 67.0704 47.5477 64.5028 48.7023 64.119C49.8477 63.7515 51.3023 66.6047 52.8568 67.7024C54.0386 68.5333 54.9341 68.3507 54.9341 68.3507L59.0909 68.2875C59.0909 68.2875 61.2568 68.1494 60.2273 66.3846C60.1477 66.2489 59.6318 65.088 57.1477 62.71C54.5364 60.2243 54.8841 60.6269 58.025 56.3203C59.9341 53.6965 60.6977 52.0956 60.4568 51.4004C60.2295 50.7521 58.825 50.9253 58.825 50.9253L54.1455 50.9534C54.1455 50.9534 53.8 50.9066 53.5432 51.0634C53.3666 51.1984 53.2259 51.3771 53.1341 51.583C53.1341 51.583 52.3886 53.6122 51.4023 55.3419C49.325 58.9791 48.4818 59.1804 48.1455 58.9534C47.3545 58.4221 47.55 56.8305 47.55 55.707C47.55 52.1681 48.0727 50.7053 46.5386 50.3238C46.0318 50.195 45.6591 50.1131 44.3636 50.1014H44.3614Z" fill="#424242"/>
<path d="M53.9259 189.002L50.0023 207.672C49.706 208.989 48.9343 209.317 47.8375 208.697L41.8588 204.252L38.9743 207.052C38.6549 207.374 38.3883 207.643 37.7726 207.643L38.2026 201.5L49.2826 191.398C49.7645 190.965 49.1776 190.725 48.534 191.158L34.8362 199.861L28.9391 197.998C27.6566 197.595 27.6334 196.704 29.2066 196.083L52.2719 187.117C53.3399 186.713 54.2742 187.357 53.9259 189.003V189.002Z" fill="#424242"/>
<path d="M43 222C55.7025 222 66 211.479 66 198.5C66 185.521 55.7025 175 43 175C30.2975 175 20 185.521 20 198.5C20 211.479 30.2975 222 43 222Z" stroke="#424242" stroke-width="5"/>
<g filter="url(#filter0_d)">
<line x1="14" y1="241" x2="76" y2="241" stroke="white" stroke-opacity="0.4" stroke-width="8" stroke-linecap="round"/>
</g>
<g filter="url(#filter1_d)">
<line x1="14" y1="14" x2="76" y2="14" stroke="white" stroke-opacity="0.4" stroke-width="8" stroke-linecap="round"/>
</g>
<path d="M38.9811 128.799C37.5132 128.799 36.3567 130.046 36.3567 131.569C36.3567 133.086 37.5402 134.338 38.9811 134.338C40.4463 134.338 41.6027 133.086 41.6027 131.569C41.6325 130.044 40.4463 128.799 38.9811 128.799ZM48.3736 128.799C46.9057 128.799 45.7492 130.046 45.7492 131.569C45.7492 133.086 46.9327 134.338 48.3736 134.338C49.8388 134.338 50.9952 133.086 50.9952 131.569C50.9925 130.044 49.8388 128.799 48.3736 128.799Z" fill="#424242"/>
<path d="M60.8779 107.875H26.3981C25.7039 107.877 25.0168 108.011 24.3761 108.27C23.7353 108.529 23.1535 108.908 22.6639 109.385C22.1742 109.862 21.7863 110.428 21.5223 111.05C21.2582 111.673 21.1232 112.339 21.125 113.012V146.728C21.125 149.571 23.4921 151.865 26.3981 151.865H55.575L54.2073 147.247L57.5033 150.216L60.6152 153.009L66.1511 157.75V113.012C66.1528 112.339 66.0179 111.673 65.7538 111.05C65.4898 110.428 65.1019 109.862 64.6122 109.385C64.1226 108.908 63.5408 108.529 62.9 108.27C62.2593 108.011 61.5722 107.877 60.8779 107.875V107.875ZM50.9438 140.443C50.9438 140.443 50.0175 139.372 49.2484 138.419C52.6175 137.495 53.904 135.453 53.904 135.453C52.8477 136.125 51.8456 136.603 50.9438 136.928C47.6604 138.26 44.0446 138.624 40.5492 137.973C39.2576 137.727 37.992 137.367 36.7683 136.897C36.123 136.659 35.4958 136.378 34.8915 136.054C34.8129 135.999 34.7371 135.978 34.6613 135.928C34.6207 135.91 34.5847 135.883 34.5556 135.85C34.0925 135.603 33.8352 135.43 33.8352 135.43C33.8352 135.43 35.0702 137.425 38.3392 138.372C37.5673 139.317 36.614 140.443 36.614 140.443C30.9292 140.267 28.7706 136.653 28.7706 136.653C28.7706 128.623 32.4756 122.116 32.4756 122.116C36.1806 119.42 39.7042 119.496 39.7042 119.496L39.9615 119.795C35.3302 121.094 33.1933 123.063 33.1933 123.063C33.1933 123.063 33.7621 122.764 34.7127 122.341C37.4644 121.171 39.65 120.845 40.5519 120.769C40.7063 120.745 40.8363 120.719 40.9906 120.719C45.4518 120.136 49.9882 120.958 53.9311 123.063C53.9311 123.063 51.8971 121.194 47.5231 119.897L47.8834 119.498C47.8834 119.498 51.4096 119.422 55.1119 122.118C55.1119 122.118 58.8169 128.626 58.8169 136.655C58.8169 136.653 56.6313 140.267 50.9438 140.443V140.443Z" fill="#424242"/>
<defs>
<filter id="filter0_d" x="0" y="227" width="90" height="28" filterUnits="userSpaceOnUse" color-interpolation-filters="sRGB">
<feFlood flood-opacity="0" result="BackgroundImageFix"/>
<feColorMatrix in="SourceAlpha" type="matrix" values="0 0 0 0 0 0 0 0 0 0 0 0 0 0 0 0 0 0 127 0"/>
<feOffset/>
<feGaussianBlur stdDeviation="5"/>
<feColorMatrix type="matrix" values="0 0 0 0 0 0 0 0 0 0 0 0 0 0 0 0 0 0 0.5 0"/>
<feBlend mode="normal" in2="BackgroundImageFix" result="effect1_dropShadow"/>
<feBlend mode="normal" in="SourceGraphic" in2="effect1_dropShadow" result="shape"/>
</filter>
<filter id="filter1_d" x="0" y="0" width="90" height="28" filterUnits="userSpaceOnUse" color-interpolation-filters="sRGB">
<feFlood flood-opacity="0" result="BackgroundImageFix"/>
<feColorMatrix in="SourceAlpha" type="matrix" values="0 0 0 0 0 0 0 0 0 0 0 0 0 0 0 0 0 0 127 0"/>
<feOffset/>
<feGaussianBlur stdDeviation="5"/>
<feColorMatrix type="matrix" values="0 0 0 0 0 0 0 0 0 0 0 0 0 0 0 0 0 0 0.5 0"/>
<feBlend mode="normal" in2="BackgroundImageFix" result="effect1_dropShadow"/>
<feBlend mode="normal" in="SourceGraphic" in2="effect1_dropShadow" result="shape"/>
</filter>
</defs>
</svg>
