<svg width="90" height="348" viewBox="0 0 90 348" fill="none" xmlns="http://www.w3.org/2000/svg">
<path d="M24.5455 46C22.0591 46 20 48.0591 20 50.5455V91.4545C20 93.9409 22.0591 96 24.5455 96H65.4545C67.9409 96 70 93.9409 70 91.4545V50.5455C70 48.0591 67.9409 46 65.4545 46H24.5455ZM24.5455 50.5455H65.4545V91.4545H53.6636V76.1136H59.5591L60.4114 69.2955H53.6659V64.8909C53.6659 62.9045 54.1523 61.5545 57.0023 61.5545H60.6954V55.375C60.0659 55.2955 57.8818 55.1614 55.3704 55.1614C50.1318 55.1614 46.5636 58.3136 46.5636 64.1818V69.2955H40.5977V76.1136H46.5614V91.4545H24.5455V50.5455Z" fill="#424242"/>
<path d="M29.2773 113.179C26.8197 113.189 24.4656 114.199 22.7278 115.988C20.9901 117.778 20.0096 120.202 20 122.733V155.117C20.0096 157.648 20.9901 160.073 22.7278 161.862C24.4656 163.652 26.8197 164.662 29.2773 164.671H60.7227C63.1803 164.662 65.5344 163.652 67.2722 161.862C69.0099 160.073 69.9904 157.648 70 155.117V122.733C69.9904 120.202 69.0099 117.778 67.2722 115.988C65.5344 114.199 63.1803 113.189 60.7227 113.179H29.2773ZM29.2773 117.86H60.7227C63.3591 117.86 65.4545 120.018 65.4545 122.733V155.117C65.4545 157.832 63.3591 159.99 60.7227 159.99H29.2773C28.6548 159.994 28.0377 159.871 27.4619 159.628C26.886 159.384 26.3628 159.025 25.9226 158.572C25.4825 158.119 25.1341 157.58 24.8977 156.987C24.6612 156.394 24.5415 155.758 24.5455 155.117V122.733C24.5455 120.018 26.6409 117.86 29.2773 117.86ZM44.3614 130.101C42.6909 130.085 41.2705 130.101 40.4727 130.504C39.9386 130.771 39.5318 131.372 39.7795 131.4C40.0909 131.447 40.7909 131.602 41.1659 132.124C41.6432 132.791 41.6273 134.3 41.6273 134.3C41.6273 134.3 41.8932 138.45 40.9773 138.972C40.3477 139.328 39.4864 138.605 37.6227 135.304C36.6727 133.605 35.9545 131.73 35.9545 131.73C35.9545 131.73 35.8182 131.382 35.5727 131.199C35.2705 130.972 34.8523 130.897 34.8523 130.897L30.4045 130.925C30.4045 130.925 29.7386 130.953 29.5 131.246C29.2773 131.52 29.4818 132.058 29.4818 132.058C29.4818 132.058 32.9614 140.442 36.9023 144.667C40.5159 148.545 44.6182 148.288 44.6182 148.288H46.4818C46.4818 148.288 47.0409 148.224 47.325 147.913C47.5932 147.62 47.5841 147.07 47.5841 147.07C47.5841 147.07 47.5477 144.503 48.7023 144.119C49.8477 143.752 51.3023 146.605 52.8568 147.702C54.0386 148.533 54.9341 148.351 54.9341 148.351L59.0909 148.288C59.0909 148.288 61.2568 148.149 60.2273 146.385C60.1477 146.249 59.6318 145.088 57.1477 142.71C54.5364 140.224 54.8841 140.627 58.025 136.32C59.9341 133.696 60.6977 132.096 60.4568 131.4C60.2295 130.752 58.825 130.925 58.825 130.925L54.1455 130.953C54.1455 130.953 53.8 130.907 53.5432 131.063C53.3666 131.198 53.2259 131.377 53.1341 131.583C53.1341 131.583 52.3886 133.612 51.4023 135.342C49.325 138.979 48.4818 139.18 48.1455 138.953C47.3545 138.422 47.55 136.83 47.55 135.707C47.55 132.168 48.0727 130.705 46.5386 130.324C46.0318 130.195 45.6591 130.113 44.3636 130.101H44.3614Z" fill="#424242"/>
<path d="M58.35 190.908C57.7567 190.908 57.1766 191.089 56.6833 191.429C56.1899 191.768 55.8054 192.251 55.5784 192.815C55.3513 193.38 55.2919 194.001 55.4076 194.601C55.5234 195.2 55.8091 195.75 56.2287 196.182C56.6482 196.615 57.1828 196.909 57.7647 197.028C58.3467 197.147 58.9499 197.086 59.4981 196.852C60.0462 196.618 60.5148 196.222 60.8444 195.714C61.1741 195.206 61.35 194.609 61.35 193.998C61.35 193.178 61.0339 192.393 60.4713 191.813C59.9087 191.234 59.1456 190.908 58.35 190.908ZM69.85 197.139C69.8014 195.003 69.4129 192.889 68.7 190.882C68.0643 189.166 67.075 187.611 65.8 186.325C64.5621 185.006 63.0489 183.993 61.375 183.365C59.4316 182.608 57.3771 182.199 55.3 182.154C52.65 182 51.8 182 45 182C38.2 182 37.35 182 34.7 182.154C32.6229 182.199 30.5684 182.608 28.625 183.365C26.9542 184 25.4423 185.011 24.2 186.325C22.9186 187.6 21.9354 189.159 21.325 190.882C20.5904 192.884 20.193 195 20.15 197.139C20 199.868 20 200.743 20 207.746C20 214.749 20 215.625 20.15 218.354C20.193 220.493 20.5904 222.609 21.325 224.61C21.9354 226.334 22.9186 227.892 24.2 229.167C25.4423 230.481 26.9542 231.493 28.625 232.128C30.5684 232.885 32.6229 233.294 34.7 233.338C37.35 233.493 38.2 233.493 45 233.493C51.8 233.493 52.65 233.493 55.3 233.338C57.3771 233.294 59.4316 232.885 61.375 232.128C63.0489 231.499 64.5621 230.487 65.8 229.167C67.0806 227.887 68.0708 226.331 68.7 224.61C69.4129 222.604 69.8014 220.49 69.85 218.354C69.85 215.625 70 214.749 70 207.746C70 200.743 70 199.868 69.85 197.139ZM65.35 218.045C65.3318 219.679 65.0444 221.298 64.5 222.834C64.1008 223.954 63.4597 224.967 62.625 225.795C61.8141 226.645 60.8331 227.304 59.75 227.725C58.2593 228.286 56.6869 228.582 55.1 228.601C52.6 228.73 51.675 228.755 45.1 228.755C38.525 228.755 37.6 228.755 35.1 228.601C33.4522 228.633 31.8115 228.371 30.25 227.828C29.2145 227.386 28.2784 226.729 27.5 225.898C26.6702 225.07 26.0371 224.057 25.65 222.937C25.0396 221.379 24.7011 219.723 24.65 218.045C24.65 215.47 24.5 214.518 24.5 207.746C24.5 200.975 24.5 200.022 24.65 197.448C24.6612 195.777 24.9574 194.121 25.525 192.556C25.9651 191.469 26.6407 190.501 27.5 189.724C28.2595 188.839 29.1982 188.136 30.25 187.664C31.7739 187.098 33.38 186.802 35 186.789C37.5 186.789 38.425 186.634 45 186.634C51.575 186.634 52.5 186.634 55 186.789C56.5869 186.808 58.1593 187.104 59.65 187.664C60.7861 188.098 61.8057 188.804 62.625 189.724C63.4443 190.515 64.0844 191.482 64.5 192.556C65.0556 194.124 65.3432 195.779 65.35 197.448C65.475 200.022 65.5 200.975 65.5 207.746C65.5 214.518 65.475 215.47 65.35 218.045ZM45 194.538C42.4645 194.544 39.9874 195.323 37.8816 196.777C35.7759 198.231 34.1359 200.296 33.1691 202.71C32.2022 205.124 31.9518 207.778 32.4495 210.339C32.9472 212.899 34.1706 215.25 35.9652 217.095C37.7598 218.939 40.045 220.195 42.5321 220.702C45.0193 221.21 47.5967 220.947 49.9387 219.946C52.2807 218.946 54.2822 217.253 55.6903 215.082C57.0984 212.91 57.85 210.358 57.85 207.746C57.8533 206.009 57.523 204.288 56.8781 202.682C56.2332 201.076 55.2864 199.618 54.0922 198.39C52.898 197.163 51.4799 196.191 49.9195 195.53C48.3591 194.868 46.6872 194.532 45 194.538ZM45 216.32C43.3535 216.32 41.7439 215.817 40.3749 214.875C39.0058 213.933 37.9388 212.594 37.3087 211.027C36.6786 209.461 36.5137 207.737 36.835 206.074C37.1562 204.411 37.9491 202.883 39.1133 201.684C40.2776 200.485 41.761 199.668 43.3759 199.338C44.9908 199.007 46.6646 199.177 48.1858 199.825C49.707 200.474 51.0072 201.573 51.922 202.983C52.8367 204.393 53.325 206.051 53.325 207.746C53.325 208.872 53.1097 209.987 52.6913 211.027C52.2729 212.067 51.6597 213.013 50.8867 213.809C50.1136 214.605 49.1959 215.236 48.1858 215.667C47.1758 216.098 46.0933 216.32 45 216.32Z" fill="#424242"/>
<path d="M56.9173 268.589L52.6923 289.108C52.3733 290.556 51.5423 290.917 50.3613 290.235L43.9233 285.349L40.8173 288.427C40.4733 288.781 40.1863 289.076 39.5233 289.076L39.9863 282.325L51.9173 271.222C52.4363 270.746 51.8043 270.482 51.1113 270.959L36.3612 280.524L30.0112 278.476C28.6302 278.032 28.6052 277.054 30.2992 276.371L55.1363 266.517C56.2863 266.073 57.2923 266.781 56.9173 268.59V268.589Z" fill="#424242"/>
<path d="M45 304.493C58.8071 304.493 70 292.966 70 278.746C70 264.527 58.8071 253 45 253C31.1929 253 20 264.527 20 278.746C20 292.966 31.1929 304.493 45 304.493Z" stroke="#424242" stroke-width="5"/>
<g filter="url(#filter0_d)">
<line x1="14" y1="334" x2="76" y2="334" stroke="white" stroke-opacity="0.4" stroke-width="8" stroke-linecap="round"/>
</g>
<g filter="url(#filter1_d)">
<line x1="14" y1="14" x2="76" y2="14" stroke="white" stroke-opacity="0.4" stroke-width="8" stroke-linecap="round"/>
</g>
<defs>
<filter id="filter0_d" x="0" y="320" width="90" height="28" filterUnits="userSpaceOnUse" color-interpolation-filters="sRGB">
<feFlood flood-opacity="0" result="BackgroundImageFix"/>
<feColorMatrix in="SourceAlpha" type="matrix" values="0 0 0 0 0 0 0 0 0 0 0 0 0 0 0 0 0 0 127 0"/>
<feOffset/>
<feGaussianBlur stdDeviation="5"/>
<feColorMatrix type="matrix" values="0 0 0 0 0 0 0 0 0 0 0 0 0 0 0 0 0 0 0.5 0"/>
<feBlend mode="normal" in2="BackgroundImageFix" result="effect1_dropShadow"/>
<feBlend mode="normal" in="SourceGraphic" in2="effect1_dropShadow" result="shape"/>
</filter>
<filter id="filter1_d" x="0" y="0" width="90" height="28" filterUnits="userSpaceOnUse" color-interpolation-filters="sRGB">
<feFlood flood-opacity="0" result="BackgroundImageFix"/>
<feColorMatrix in="SourceAlpha" type="matrix" values="0 0 0 0 0 0 0 0 0 0 0 0 0 0 0 0 0 0 127 0"/>
<feOffset/>
<feGaussianBlur stdDeviation="5"/>
<feColorMatrix type="matrix" values="0 0 0 0 0 0 0 0 0 0 0 0 0 0 0 0 0 0 0.5 0"/>
<feBlend mode="normal" in2="BackgroundImageFix" result="effect1_dropShadow"/>
<feBlend mode="normal" in="SourceGraphic" in2="effect1_dropShadow" result="shape"/>
</filter>
</defs>
</svg>
