<svg width="56" height="58" viewBox="0 0 56 58" fill="none" xmlns="http://www.w3.org/2000/svg">
<path d="M39.9173 18.8575L35.6923 39.3769C35.3733 40.8248 34.5423 41.1853 33.3613 40.5035L26.9233 35.618L23.8173 38.6951C23.4733 39.0494 23.1863 39.345 22.5233 39.345L22.9863 32.5934L34.9173 21.4907C35.4363 21.015 34.8043 20.7503 34.1113 21.2271L19.3612 30.7922L13.0112 28.7449C11.6302 28.301 11.6052 27.3227 13.2992 26.6399L38.1363 16.7854C39.2863 16.3416 40.2923 17.0491 39.9173 18.8585V18.8575Z" fill="#0088CC"/>
<path d="M28 54.7612C41.8071 54.7612 53 43.2342 53 29.0149C53 14.7956 41.8071 3.26855 28 3.26855C14.1929 3.26855 3 14.7956 3 29.0149C3 43.2342 14.1929 54.7612 28 54.7612Z" stroke="#0088CC" stroke-width="5"/>
</svg>
