<svg width="544" height="539" viewBox="0 0 544 539" fill="none" xmlns="http://www.w3.org/2000/svg">
<path d="M515.368 513.914L412.696 409.148H85.8947C70.7076 409.148 56.1425 402.992 45.4036 392.034C34.6646 381.076 28.6316 366.214 28.6316 350.718V87.7801C28.6316 72.2834 34.6646 57.4213 45.4036 46.4635C56.1425 35.5056 70.7076 29.3496 85.8947 29.3496H458.105C473.292 29.3496 487.857 35.5056 498.596 46.4635C509.335 57.4213 515.368 72.2834 515.368 87.7801V513.914ZM515.368 555.225H544V87.7801C544 64.535 534.95 42.2419 518.842 25.8052C502.734 9.36837 480.886 0.134277 458.105 0.134277H85.8947C63.114 0.134277 41.2664 9.36837 25.158 25.8052C9.0496 42.2419 0 64.535 0 87.7801V350.718C0 373.963 9.0496 396.256 25.158 412.693C41.2664 429.129 63.114 438.363 85.8947 438.363H400.842L515.368 555.225Z" fill="#208CFF" fill-opacity="0.1"/>
</svg>
