<svg width="355" height="307" viewBox="0 0 355 307" fill="none" xmlns="http://www.w3.org/2000/svg">
<g filter="url(#filter0_d)">
<path d="M318.421 267.13L261.767 219.108C259.96 217.577 257.669 216.737 255.301 216.737H69.7368C60.9428 216.737 52.509 213.776 46.2907 208.505C40.0724 203.234 36.5789 196.086 36.5789 188.632V62.1579C36.5789 54.7039 40.0724 47.5552 46.2907 42.2845C52.509 37.0137 60.9428 34.0526 69.7368 34.0526H285.263C294.057 34.0526 302.491 37.0137 308.709 42.2845C314.928 47.5552 318.421 54.7039 318.421 62.1579V267.13ZM314.267 283.479C316.949 285.752 320.351 287 323.866 287C330.015 287 335 282.015 335 275.866V62.1579C335 50.9769 329.76 40.2539 320.432 32.3478C311.105 24.4416 298.454 20 285.263 20H69.7368C56.5458 20 43.8951 24.4416 34.5676 32.3478C25.2401 40.2539 20 50.9769 20 62.1579V188.632C20 199.813 25.2401 210.536 34.5676 218.442C43.8951 226.348 56.5458 230.789 69.7368 230.789H248.437C250.805 230.789 253.097 231.63 254.903 233.161L314.267 283.479Z" fill="#208CFF" fill-opacity="0.4"/>
</g>
<defs>
<filter id="filter0_d" x="0" y="0" width="355" height="307" filterUnits="userSpaceOnUse" color-interpolation-filters="sRGB">
<feFlood flood-opacity="0" result="BackgroundImageFix"/>
<feColorMatrix in="SourceAlpha" type="matrix" values="0 0 0 0 0 0 0 0 0 0 0 0 0 0 0 0 0 0 127 0"/>
<feOffset/>
<feGaussianBlur stdDeviation="10"/>
<feColorMatrix type="matrix" values="0 0 0 0 0.12549 0 0 0 0 0.545098 0 0 0 0 1 0 0 0 0.5 0"/>
<feBlend mode="normal" in2="BackgroundImageFix" result="effect1_dropShadow"/>
<feBlend mode="normal" in="SourceGraphic" in2="effect1_dropShadow" result="shape"/>
</filter>
</defs>
</svg>
