<svg width="544" height="555" viewBox="0 0 544 555" fill="none" xmlns="http://www.w3.org/2000/svg">
<path d="M515.368 513.78L412.696 409.014H85.8947C70.7076 409.014 56.1425 402.858 45.4036 391.9C34.6646 380.942 28.6316 366.08 28.6316 350.583V87.6458C28.6316 72.1491 34.6646 57.287 45.4036 46.3292C56.1425 35.3713 70.7076 29.2153 85.8947 29.2153H458.105C473.292 29.2153 487.857 35.3713 498.596 46.3292C509.335 57.287 515.368 72.1491 515.368 87.6458V513.78ZM515.368 555.09H544V87.6458C544 64.4007 534.95 42.1077 518.842 25.6709C502.734 9.23409 480.886 0 458.105 0H85.8947C63.114 0 41.2664 9.23409 25.158 25.6709C9.0496 42.1077 0 64.4007 0 87.6458V350.583C0 373.828 9.0496 396.122 25.158 412.558C41.2664 428.995 63.114 438.229 85.8947 438.229H400.842L515.368 555.09Z" fill="#208CFF" fill-opacity="0.4"/>
</svg>
