<svg width="50" height="52" viewBox="0 0 50 52" fill="none" xmlns="http://www.w3.org/2000/svg">
<path d="M9.27727 0C6.81973 0.00986228 4.46558 1.01962 2.72783 2.80924C0.990076 4.59886 0.00957648 7.02326 0 9.55414V41.938C0.00957648 44.4689 0.990076 46.8933 2.72783 48.683C4.46558 50.4726 6.81973 51.4823 9.27727 51.4922H40.7227C43.1803 51.4823 45.5344 50.4726 47.2722 48.683C49.0099 46.8933 49.9904 44.4689 50 41.938V9.55414C49.9904 7.02326 49.0099 4.59886 47.2722 2.80924C45.5344 1.01962 43.1803 0.00986228 40.7227 0H9.27727ZM9.27727 4.68111H40.7227C43.3591 4.68111 45.4545 6.8391 45.4545 9.55414V41.938C45.4545 44.6531 43.3591 46.8111 40.7227 46.8111H9.27727C8.65479 46.8151 8.03771 46.6918 7.46185 46.4484C6.88599 46.2049 6.3628 45.8461 5.92263 45.3928C5.48245 44.9395 5.13406 44.4007 4.89765 43.8076C4.66124 43.2146 4.54153 42.5791 4.54545 41.938V9.55414C4.54545 6.8391 6.64091 4.68111 9.27727 4.68111ZM24.3614 16.9222C22.6909 16.9058 21.2705 16.9222 20.4727 17.3248C19.9386 17.5916 19.5318 18.1931 19.7795 18.2212C20.0909 18.268 20.7909 18.4225 21.1659 18.9444C21.6432 19.6115 21.6273 21.1212 21.6273 21.1212C21.6273 21.1212 21.8932 25.271 20.9773 25.7929C20.3477 26.1487 19.4864 25.4254 17.6227 22.1253C16.6727 20.426 15.9545 18.5512 15.9545 18.5512C15.9545 18.5512 15.8182 18.2025 15.5727 18.0199C15.2705 17.7929 14.8523 17.718 14.8523 17.718L10.4045 17.7461C10.4045 17.7461 9.73864 17.7742 9.5 18.0667C9.27727 18.3406 9.48182 18.8789 9.48182 18.8789C9.48182 18.8789 12.9614 27.2628 16.9023 31.4875C20.5159 35.3658 24.6182 35.1083 24.6182 35.1083H26.4818C26.4818 35.1083 27.0409 35.0451 27.325 34.7338C27.5932 34.4413 27.5841 33.8912 27.5841 33.8912C27.5841 33.8912 27.5477 31.3236 28.7023 30.9398C29.8477 30.5723 31.3023 33.4255 32.8568 34.5232C34.0386 35.3541 34.9341 35.1715 34.9341 35.1715L39.0909 35.1083C39.0909 35.1083 41.2568 34.9702 40.2273 33.2054C40.1477 33.0697 39.6318 31.9088 37.1477 29.5308C34.5364 27.0451 34.8841 27.4477 38.025 23.1411C39.9341 20.5173 40.6977 18.9164 40.4568 18.2212C40.2295 17.5729 38.825 17.7461 38.825 17.7461L34.1455 17.7742C34.1455 17.7742 33.8 17.7274 33.5432 17.8842C33.3666 18.0192 33.2259 18.1979 33.1341 18.4038C33.1341 18.4038 32.3886 20.433 31.4023 22.1627C29.325 25.7999 28.4818 26.0012 28.1455 25.7742C27.3545 25.2429 27.55 23.6513 27.55 22.5278C27.55 18.9889 28.0727 17.5261 26.5386 17.1446C26.0318 17.0158 25.6591 16.9339 24.3636 16.9222H24.3614Z" fill="#4E77AD"/>
</svg>
