<svg width="58" height="60" viewBox="0 0 58 60" fill="none" xmlns="http://www.w3.org/2000/svg">
<g filter="url(#filter0_d)">
<path d="M13.2773 0.179199C10.8197 0.189062 8.46558 1.19882 6.72783 2.98844C4.99008 4.77805 4.00958 7.20246 4 9.73334V42.1172C4.00958 44.6481 4.99008 47.0725 6.72783 48.8622C8.46558 50.6518 10.8197 51.6615 13.2773 51.6714H44.7227C47.1803 51.6615 49.5344 50.6518 51.2722 48.8622C53.0099 47.0725 53.9904 44.6481 54 42.1172V9.73334C53.9904 7.20246 53.0099 4.77805 51.2722 2.98844C49.5344 1.19882 47.1803 0.189062 44.7227 0.179199H13.2773ZM13.2773 4.86031H44.7227C47.3591 4.86031 49.4545 7.0183 49.4545 9.73334V42.1172C49.4545 44.8323 47.3591 46.9903 44.7227 46.9903H13.2773C12.6548 46.9943 12.0377 46.871 11.4619 46.6276C10.886 46.3841 10.3628 46.0253 9.92263 45.572C9.48245 45.1187 9.13406 44.5799 8.89765 43.9868C8.66124 43.3938 8.54153 42.7583 8.54545 42.1172V9.73334C8.54545 7.0183 10.6409 4.86031 13.2773 4.86031ZM28.3614 17.1014C26.6909 17.085 25.2705 17.1014 24.4727 17.504C23.9386 17.7708 23.5318 18.3723 23.7795 18.4004C24.0909 18.4472 24.7909 18.6017 25.1659 19.1236C25.6432 19.7907 25.6273 21.3004 25.6273 21.3004C25.6273 21.3004 25.8932 25.4502 24.9773 25.9721C24.3477 26.3279 23.4864 25.6046 21.6227 22.3045C20.6727 20.6052 19.9545 18.7304 19.9545 18.7304C19.9545 18.7304 19.8182 18.3817 19.5727 18.1991C19.2705 17.9721 18.8523 17.8972 18.8523 17.8972L14.4045 17.9253C14.4045 17.9253 13.7386 17.9534 13.5 18.2459C13.2773 18.5198 13.4818 19.0581 13.4818 19.0581C13.4818 19.0581 16.9614 27.442 20.9023 31.6667C24.5159 35.545 28.6182 35.2875 28.6182 35.2875H30.4818C30.4818 35.2875 31.0409 35.2243 31.325 34.913C31.5932 34.6205 31.5841 34.0704 31.5841 34.0704C31.5841 34.0704 31.5477 31.5028 32.7023 31.119C33.8477 30.7515 35.3023 33.6047 36.8568 34.7024C38.0386 35.5333 38.9341 35.3507 38.9341 35.3507L43.0909 35.2875C43.0909 35.2875 45.2568 35.1494 44.2273 33.3846C44.1477 33.2489 43.6318 32.088 41.1477 29.71C38.5364 27.2243 38.8841 27.6269 42.025 23.3203C43.9341 20.6965 44.6977 19.0956 44.4568 18.4004C44.2295 17.7521 42.825 17.9253 42.825 17.9253L38.1455 17.9534C38.1455 17.9534 37.8 17.9066 37.5432 18.0634C37.3666 18.1984 37.2259 18.3771 37.1341 18.583C37.1341 18.583 36.3886 20.6122 35.4023 22.3419C33.325 25.9791 32.4818 26.1804 32.1455 25.9534C31.3545 25.4221 31.55 23.8305 31.55 22.707C31.55 19.1681 32.0727 17.7053 30.5386 17.3238C30.0318 17.195 29.6591 17.1131 28.3636 17.1014H28.3614Z" fill="#424242"/>
</g>
<defs>
<filter id="filter0_d" x="0" y="0.179199" width="58" height="59.4922" filterUnits="userSpaceOnUse" color-interpolation-filters="sRGB">
<feFlood flood-opacity="0" result="BackgroundImageFix"/>
<feColorMatrix in="SourceAlpha" type="matrix" values="0 0 0 0 0 0 0 0 0 0 0 0 0 0 0 0 0 0 127 0"/>
<feOffset dy="4"/>
<feGaussianBlur stdDeviation="2"/>
<feColorMatrix type="matrix" values="0 0 0 0 0 0 0 0 0 0 0 0 0 0 0 0 0 0 0.25 0"/>
<feBlend mode="normal" in2="BackgroundImageFix" result="effect1_dropShadow"/>
<feBlend mode="normal" in="SourceGraphic" in2="effect1_dropShadow" result="shape"/>
</filter>
</defs>
</svg>
