<svg width="120" height="179" viewBox="0 0 120 179" fill="none" xmlns="http://www.w3.org/2000/svg">
<path d="M81.6614 149.06L107.639 117.098C108.958 115.533 110.755 114.631 112.643 114.585C114.531 114.539 116.359 115.353 117.734 116.852C119.108 118.35 119.92 120.414 119.994 122.599C120.069 124.784 119.399 126.915 118.13 128.534L79.7015 175.815C79.0279 176.643 78.215 177.303 77.3129 177.755C76.4108 178.206 75.4386 178.438 74.456 178.438C73.4734 178.438 72.5011 178.206 71.599 177.755C70.697 177.303 69.8841 176.643 69.2104 175.815L30.7815 128.534C30.1127 127.741 29.5871 126.801 29.2354 125.77C28.8836 124.739 28.7128 123.638 28.733 122.529C28.7531 121.421 28.9638 120.328 29.3526 119.315C29.7415 118.302 30.3008 117.389 30.9979 116.63C31.6949 115.87 32.5157 115.278 33.4123 114.89C34.309 114.502 35.2635 114.324 36.22 114.367C37.1766 114.411 38.1161 114.675 38.9836 115.144C39.8511 115.612 40.6293 116.277 41.2726 117.098L67.2506 149.06L67.2506 36.5975C67.2506 31.4341 65.4792 26.4822 62.3263 22.8311C59.1733 19.18 54.8969 17.1289 50.4379 17.1289H7.20542C5.29442 17.1289 3.46169 16.2498 2.11042 14.6851C0.759139 13.1203 0 10.9981 0 8.7852C0 6.57231 0.759139 4.45004 2.11042 2.88529C3.46169 1.32054 5.29442 0.441497 7.20542 0.441497H50.4379C58.7189 0.441497 66.6607 4.25077 72.5162 11.0313C78.3718 17.8119 81.6614 27.0084 81.6614 36.5975L81.6614 149.06Z" fill="#61CDBB"/>
</svg>
