<svg width="135" height="135" viewBox="0 0 135 135" fill="none" xmlns="http://www.w3.org/2000/svg">
<circle cx="3.5" cy="3.5" r="3.5" fill="#F0F8FF"/>
<circle cx="3.5" cy="35.5" r="3.5" fill="#F0F8FF"/>
<circle cx="3.5" cy="67.5" r="3.5" fill="#F0F8FF"/>
<circle cx="3.5" cy="99.5" r="3.5" fill="#F0F8FF"/>
<circle cx="3.5" cy="131.5" r="3.5" fill="#F0F8FF"/>
<circle cx="35.5" cy="3.5" r="3.5" fill="#F0F8FF"/>
<circle cx="35.5" cy="35.5" r="3.5" fill="#F0F8FF"/>
<circle cx="35.5" cy="67.5" r="3.5" fill="#F0F8FF"/>
<circle cx="35.5" cy="99.5" r="3.5" fill="#F0F8FF"/>
<circle cx="35.5" cy="131.5" r="3.5" fill="#F0F8FF"/>
<circle cx="67.5" cy="3.5" r="3.5" fill="#F0F8FF"/>
<circle cx="67.5" cy="35.5" r="3.5" fill="#F0F8FF"/>
<circle cx="67.5" cy="67.5" r="3.5" fill="#F0F8FF"/>
<circle cx="67.5" cy="99.5" r="3.5" fill="#F0F8FF"/>
<circle cx="67.5" cy="131.5" r="3.5" fill="#F0F8FF"/>
<circle cx="99.5" cy="3.5" r="3.5" fill="#F0F8FF"/>
<circle cx="99.5" cy="35.5" r="3.5" fill="#F0F8FF"/>
<circle cx="99.5" cy="67.5" r="3.5" fill="#F0F8FF"/>
<circle cx="99.5" cy="99.5" r="3.5" fill="#F0F8FF"/>
<circle cx="99.5" cy="131.5" r="3.5" fill="#F0F8FF"/>
<circle cx="131.5" cy="3.5" r="3.5" fill="#F0F8FF"/>
<circle cx="131.5" cy="35.5" r="3.5" fill="#F0F8FF"/>
<circle cx="131.5" cy="67.5" r="3.5" fill="#F0F8FF"/>
<circle cx="131.5" cy="99.5" r="3.5" fill="#F0F8FF"/>
<circle cx="131.5" cy="131.5" r="3.5" fill="#F0F8FF"/>
</svg>
