<svg width="169" height="169" viewBox="0 0 169 169" fill="none" xmlns="http://www.w3.org/2000/svg">
<path d="M128.884 10.4885C131.333 10.0567 133.852 10.6154 135.889 12.0415C137.926 13.4677 139.313 15.6445 139.744 18.0931L159.28 128.884C159.712 131.333 159.153 133.852 157.727 135.889C156.301 137.926 154.124 139.313 151.675 139.745L40.8844 159.28C38.4358 159.712 35.9159 159.153 33.8792 157.727C31.8424 156.301 30.4557 154.124 30.0239 151.675L10.4885 40.8844C10.0567 38.4358 10.6154 35.9159 12.0415 33.8792C13.4676 31.8425 15.6445 30.4557 18.0931 30.0239L128.884 10.4885ZM16.4651 20.7913C11.5679 21.6549 7.21423 24.4284 4.36195 28.5019C1.50966 32.5754 0.392384 37.6151 1.2559 42.5124L20.7913 153.303C21.6548 158.201 24.4284 162.554 28.5019 165.406C32.5754 168.259 37.6151 169.376 42.5124 168.512L153.303 148.977C158.201 148.114 162.554 145.34 165.406 141.266C168.259 137.193 169.376 132.153 168.512 127.256L148.977 16.4652C148.114 11.5679 145.34 7.21425 141.266 4.36196C137.193 1.50968 132.153 0.392399 127.256 1.25592L16.4651 20.7913Z" fill="#424242" fill-opacity="0.1"/>
</svg>
