<svg width="188" height="194" viewBox="0 0 188 194" fill="none" xmlns="http://www.w3.org/2000/svg">
<path d="M153.103 7.61225C152.818 6.13973 152.146 4.75349 151.156 3.59344C150.165 2.43339 148.892 1.54056 147.463 1.00507C146.034 0.469568 144.501 0.310344 143.019 0.543465C141.536 0.776586 140.156 1.3938 139.019 2.33282L3.26519 114.373C2.13091 115.309 1.27712 116.532 0.789472 117.919C0.301822 119.306 0.197453 120.809 0.486839 122.276C0.776225 123.743 1.44918 125.124 2.43822 126.278C3.42725 127.433 4.69758 128.322 6.12177 128.856L175.938 192.509C177.362 193.043 178.89 193.203 180.368 192.973C181.847 192.743 183.224 192.131 184.361 191.199C185.498 190.266 186.356 189.046 186.849 187.661C187.341 186.276 187.45 184.774 187.166 183.306L153.103 7.61225ZM19.0114 119.363L141.304 18.4327L171.989 176.705L19.0114 119.363Z" fill="#424242" fill-opacity="0.1"/>
</svg>
