<svg width="50" height="52" viewBox="0 0 50 52" fill="none" xmlns="http://www.w3.org/2000/svg">
<path d="M38.35 9.17679C37.7567 9.17679 37.1766 9.35799 36.6833 9.69747C36.1899 10.037 35.8054 10.5195 35.5784 11.084C35.3513 11.6486 35.2919 12.2698 35.4076 12.8691C35.5234 13.4684 35.8091 14.0189 36.2287 14.451C36.6482 14.8831 37.1828 15.1773 37.7647 15.2965C38.3467 15.4158 38.9499 15.3546 39.4981 15.1207C40.0462 14.8869 40.5148 14.4909 40.8444 13.9828C41.1741 13.4747 41.35 12.8774 41.35 12.2663C41.35 11.4469 41.0339 10.6611 40.4713 10.0817C39.9087 9.50229 39.1456 9.17679 38.35 9.17679ZM49.85 15.4074C49.8014 13.2712 49.4129 11.1577 48.7 9.15104C48.0643 7.4341 47.075 5.8794 45.8 4.59394C44.5621 3.27425 43.0489 2.26178 41.375 1.63311C39.4316 0.876582 37.3771 0.467342 35.3 0.423033C32.65 0.268555 31.8 0.268555 25 0.268555C18.2 0.268555 17.35 0.268555 14.7 0.423033C12.6229 0.467342 10.5684 0.876582 8.625 1.63311C6.95419 2.26814 5.44233 3.27974 4.2 4.59394C2.91857 5.86884 1.93544 7.42717 1.325 9.15104C0.590402 11.1524 0.193025 13.2683 0.15 15.4074C-1.39698e-07 18.1365 0 19.0119 0 26.0149C0 33.0179 -1.39698e-07 33.8933 0.15 36.6224C0.193025 38.7615 0.590402 40.8774 1.325 42.8787C1.93544 44.6026 2.91857 46.1609 4.2 47.4358C5.44233 48.75 6.95419 49.7616 8.625 50.3967C10.5684 51.1532 12.6229 51.5624 14.7 51.6068C17.35 51.7612 18.2 51.7612 25 51.7612C31.8 51.7612 32.65 51.7612 35.3 51.6068C37.3771 51.5624 39.4316 51.1532 41.375 50.3967C43.0489 49.768 44.5621 48.7555 45.8 47.4358C47.0806 46.1552 48.0708 44.5991 48.7 42.8787C49.4129 40.8721 49.8014 38.7586 49.85 36.6224C49.85 33.8933 50 33.0179 50 26.0149C50 19.0119 50 18.1365 49.85 15.4074ZM45.35 36.3134C45.3318 37.9477 45.0444 39.567 44.5 41.1022C44.1008 42.2227 43.4597 43.2351 42.625 44.0631C41.8141 44.914 40.8331 45.5729 39.75 45.9941C38.2593 46.5547 36.6869 46.8507 35.1 46.8694C32.6 46.9982 31.675 47.0239 25.1 47.0239C18.525 47.0239 17.6 47.0239 15.1 46.8694C13.4522 46.9012 11.8115 46.6399 10.25 46.097C9.21445 45.6544 8.27839 44.9971 7.5 44.1661C6.67022 43.339 6.03711 42.3257 5.65 41.2052C5.03964 39.648 4.70111 37.9919 4.65 36.3134C4.65 33.7388 4.5 32.7862 4.5 26.0149C4.5 19.2436 4.5 18.291 4.65 15.7164C4.66121 14.0456 4.95738 12.3898 5.525 10.8246C5.96512 9.73783 6.64066 8.76912 7.5 7.99246C8.25953 7.10722 9.19822 6.40415 10.25 5.93275C11.7739 5.36644 13.38 5.07045 15 5.05737C17.5 5.05737 18.425 4.9029 25 4.9029C31.575 4.9029 32.5 4.9029 35 5.05737C36.5869 5.07612 38.1593 5.37211 39.65 5.93275C40.7861 6.36697 41.8057 7.07292 42.625 7.99246C43.4443 8.78333 44.0844 9.75024 44.5 10.8246C45.0556 12.3923 45.3432 14.0474 45.35 15.7164C45.475 18.291 45.5 19.2436 45.5 26.0149C45.5 32.7862 45.475 33.7388 45.35 36.3134ZM25 12.807C22.4645 12.8121 19.9874 13.5911 17.8816 15.0455C15.7759 16.4998 14.1359 18.5644 13.1691 20.9783C12.2022 23.3921 11.9518 26.047 12.4495 28.6074C12.9472 31.1677 14.1706 33.5188 15.9652 35.3633C17.7598 37.2079 20.045 38.4633 22.5321 38.9708C25.0193 39.4784 27.5967 39.2153 29.9387 38.2149C32.2807 37.2145 34.2822 35.5216 35.6903 33.3501C37.0984 31.1786 37.85 28.6261 37.85 26.0149C37.8533 24.2773 37.523 22.5561 36.8781 20.9505C36.2332 19.3448 35.2864 17.8863 34.0922 16.6588C32.898 15.4313 31.4799 14.4591 29.9195 13.7981C28.3591 13.137 26.6872 12.8002 25 12.807ZM25 34.5884C23.3535 34.5884 21.7439 34.0856 20.3749 33.1435C19.0058 32.2015 17.9388 30.8624 17.3087 29.2958C16.6786 27.7292 16.5137 26.0054 16.835 24.3423C17.1562 22.6792 17.9491 21.1515 19.1133 19.9525C20.2776 18.7535 21.761 17.9369 23.3759 17.6061C24.9908 17.2753 26.6646 17.4451 28.1858 18.094C29.707 18.7429 31.0072 19.8418 31.922 21.2517C32.8367 22.6616 33.325 24.3192 33.325 26.0149C33.325 27.1408 33.1097 28.2557 32.6913 29.2958C32.2729 30.336 31.6597 31.2812 30.8867 32.0773C30.1136 32.8734 29.1959 33.5049 28.1858 33.9358C27.1758 34.3667 26.0933 34.5884 25 34.5884Z" fill="#424242"/>
</svg>
