<svg width="201" height="127" viewBox="0 0 201 127" fill="none" xmlns="http://www.w3.org/2000/svg">
<path d="M0 72.5L24.5 36L44.5 75L18.5 111L0 72.5Z" fill="url(#paint0_linear)"/>
<path d="M44.5 75H94.5L68.5 111H18.5L44.5 75Z" fill="url(#paint1_linear)"/>
<path d="M24.5 36H74.5L94.5 75H44.5L24.5 36Z" fill="#70E5FF"/>
<circle cx="166" cy="77" r="35" fill="url(#paint2_radial)"/>
<path d="M110 0L159 113.018L115.54 126L110 0Z" fill="url(#paint3_linear)"/>
<path d="M109.453 1L115 127L59 114.018L109.453 1Z" fill="url(#paint4_linear)"/>
<defs>
<linearGradient id="paint0_linear" x1="52.5" y1="43" x2="8" y2="90" gradientUnits="userSpaceOnUse">
<stop stop-color="#79E7FF"/>
<stop offset="1" stop-color="#007BFF"/>
</linearGradient>
<linearGradient id="paint1_linear" x1="79" y1="61" x2="44.5" y2="111" gradientUnits="userSpaceOnUse">
<stop stop-color="#79E7FF"/>
<stop offset="1" stop-color="#007BFF"/>
</linearGradient>
<radialGradient id="paint2_radial" cx="0" cy="0" r="1" gradientUnits="userSpaceOnUse" gradientTransform="translate(178.25 91.5833) rotate(-134.061) scale(50.3292)">
<stop stop-color="#208CFF"/>
<stop offset="1" stop-color="#12C2E9"/>
</radialGradient>
<linearGradient id="paint3_linear" x1="134.5" y1="0" x2="134.5" y2="126" gradientUnits="userSpaceOnUse">
<stop stop-color="#79E7FF"/>
<stop offset="1" stop-color="#007BFF"/>
</linearGradient>
<linearGradient id="paint4_linear" x1="87" y1="1" x2="87" y2="127" gradientUnits="userSpaceOnUse">
<stop stop-color="#79E7FF"/>
<stop offset="1" stop-color="#007BFF"/>
</linearGradient>
</defs>
</svg>
