<svg width="600" height="330" viewBox="0 0 600 330" fill="none" xmlns="http://www.w3.org/2000/svg">
<g filter="url(#filter0_bd)">
<rect x="45" y="45" width="500" height="230" rx="30" fill="#504E64" fill-opacity="0.5"/>
</g>
<line x1="76.5" y1="115.5" x2="118.5" y2="115.5" stroke="#BC1616" stroke-width="3" stroke-linecap="round"/>
<path d="M461.917 84.5837C463.032 84.5837 464.13 84.6637 465.152 84.8519C466.158 84.9977 467.151 85.2401 468.119 85.5766C469.089 85.9012 470.038 86.3059 470.987 86.8141C471.911 87.2987 472.86 87.8916 473.81 88.5362C475.414 89.6655 476.993 90.5783 478.602 91.3077C481.77 92.7091 485.119 93.543 488.524 93.778C490.253 93.9144 492.028 93.9944 493.875 93.9944V112.816C493.875 116.392 493.462 119.78 492.636 123.007C491.843 126.189 490.716 129.258 489.278 132.15C487.846 135.038 486.152 137.758 484.221 140.267C482.261 142.832 480.139 145.241 477.87 147.475C475.572 149.716 473.151 151.798 470.621 153.71C468.093 155.648 465.539 157.45 462.985 159.088L461.964 159.761L460.942 159.088C458.316 157.408 455.752 155.613 453.255 153.71C450.711 151.819 448.289 149.736 446.006 147.475C443.739 145.241 441.618 142.832 439.659 140.267C437.734 137.747 436.032 135.029 434.577 132.15C433.163 129.245 432.037 126.179 431.218 123.007C430.387 119.689 429.978 116.259 430.001 112.816V93.9944C431.853 93.9944 433.628 93.9144 435.356 93.778C437.057 93.6473 438.747 93.3784 440.413 92.9733C442.043 92.5687 443.673 92.0323 445.278 91.3077C446.943 90.5648 448.539 89.6461 450.045 88.5645C451.918 87.2187 453.816 86.2259 455.689 85.5719C457.706 84.8883 459.807 84.555 461.917 84.5837V84.5837ZM489.593 98.6197C486.371 98.4469 483.179 97.8514 480.084 96.8458C477.005 95.8307 474.073 94.3367 471.375 92.4087C469.975 91.3933 468.456 90.5968 466.859 90.0419C465.263 89.509 463.604 89.2456 461.938 89.2608C460.259 89.2488 458.588 89.5121 456.979 90.0419C455.38 90.5788 453.862 91.3765 452.476 92.4087C449.773 94.3472 446.833 95.8477 443.745 96.8646C440.727 97.8339 437.569 98.4268 434.258 98.6433V112.839C434.258 115.959 434.624 118.942 435.356 121.817C436.102 124.667 437.129 127.417 438.42 130.018C439.727 132.646 441.267 135.124 443.018 137.415C444.793 139.725 446.687 141.876 448.73 143.918C450.773 145.965 452.914 147.847 455.153 149.593C457.413 151.343 459.678 152.929 461.938 154.378C464.252 152.888 466.509 151.292 468.702 149.593C470.955 147.852 473.108 145.957 475.146 143.918C477.189 141.876 479.088 139.725 480.863 137.415C482.613 135.124 484.153 132.647 485.46 130.018C486.745 127.421 487.758 124.669 488.478 121.817C489.232 118.898 489.608 115.875 489.593 112.839V98.6197V98.6197Z" fill="white"/>
<path fill-rule="evenodd" clip-rule="evenodd" d="M477.785 106.741L475.912 104.962L474.184 105.127L455.626 129.35L449.305 119.374L447.602 119.054L445.631 120.612L445.337 122.494L453.463 135.321L454.387 135.886L456.332 136.017L457.328 135.537L477.909 108.646L477.785 106.741V106.741Z" fill="white"/>
<defs>
<filter id="filter0_bd" x="0" y="0" width="600" height="330" filterUnits="userSpaceOnUse" color-interpolation-filters="sRGB">
<feFlood flood-opacity="0" result="BackgroundImageFix"/>
<feGaussianBlur in="BackgroundImage" stdDeviation="20"/>
<feComposite in2="SourceAlpha" operator="in" result="effect1_backgroundBlur"/>
<feColorMatrix in="SourceAlpha" type="matrix" values="0 0 0 0 0 0 0 0 0 0 0 0 0 0 0 0 0 0 127 0"/>
<feMorphology radius="10" operator="dilate" in="SourceAlpha" result="effect2_dropShadow"/>
<feOffset dx="5" dy="5"/>
<feGaussianBlur stdDeviation="20"/>
<feColorMatrix type="matrix" values="0 0 0 0 0 0 0 0 0 0 0 0 0 0 0 0 0 0 0.5 0"/>
<feBlend mode="normal" in2="effect1_backgroundBlur" result="effect2_dropShadow"/>
<feBlend mode="normal" in="SourceGraphic" in2="effect2_dropShadow" result="shape"/>
</filter>
</defs>
</svg>
