<svg width="50" height="52" viewBox="0 0 50 52" fill="none" xmlns="http://www.w3.org/2000/svg">
<path d="M9.27727 0.179199C6.81973 0.189062 4.46558 1.19882 2.72783 2.98844C0.990076 4.77805 0.00957648 7.20246 0 9.73334V42.1172C0.00957648 44.6481 0.990076 47.0725 2.72783 48.8622C4.46558 50.6518 6.81973 51.6615 9.27727 51.6714H40.7227C43.1803 51.6615 45.5344 50.6518 47.2722 48.8622C49.0099 47.0725 49.9904 44.6481 50 42.1172V9.73334C49.9904 7.20246 49.0099 4.77805 47.2722 2.98844C45.5344 1.19882 43.1803 0.189062 40.7227 0.179199H9.27727ZM9.27727 4.86031H40.7227C43.3591 4.86031 45.4545 7.0183 45.4545 9.73334V42.1172C45.4545 44.8323 43.3591 46.9903 40.7227 46.9903H9.27727C8.65479 46.9943 8.03771 46.871 7.46185 46.6276C6.88599 46.3841 6.3628 46.0253 5.92263 45.572C5.48245 45.1187 5.13406 44.5799 4.89765 43.9868C4.66124 43.3938 4.54153 42.7583 4.54545 42.1172V9.73334C4.54545 7.0183 6.64091 4.86031 9.27727 4.86031ZM24.3614 17.1014C22.6909 17.085 21.2705 17.1014 20.4727 17.504C19.9386 17.7708 19.5318 18.3723 19.7795 18.4004C20.0909 18.4472 20.7909 18.6017 21.1659 19.1236C21.6432 19.7907 21.6273 21.3004 21.6273 21.3004C21.6273 21.3004 21.8932 25.4502 20.9773 25.9721C20.3477 26.3279 19.4864 25.6046 17.6227 22.3045C16.6727 20.6052 15.9545 18.7304 15.9545 18.7304C15.9545 18.7304 15.8182 18.3817 15.5727 18.1991C15.2705 17.9721 14.8523 17.8972 14.8523 17.8972L10.4045 17.9253C10.4045 17.9253 9.73864 17.9534 9.5 18.2459C9.27727 18.5198 9.48182 19.0581 9.48182 19.0581C9.48182 19.0581 12.9614 27.442 16.9023 31.6667C20.5159 35.545 24.6182 35.2875 24.6182 35.2875H26.4818C26.4818 35.2875 27.0409 35.2243 27.325 34.913C27.5932 34.6205 27.5841 34.0704 27.5841 34.0704C27.5841 34.0704 27.5477 31.5028 28.7023 31.119C29.8477 30.7515 31.3023 33.6047 32.8568 34.7024C34.0386 35.5333 34.9341 35.3507 34.9341 35.3507L39.0909 35.2875C39.0909 35.2875 41.2568 35.1494 40.2273 33.3846C40.1477 33.2489 39.6318 32.088 37.1477 29.71C34.5364 27.2243 34.8841 27.6269 38.025 23.3203C39.9341 20.6965 40.6977 19.0956 40.4568 18.4004C40.2295 17.7521 38.825 17.9253 38.825 17.9253L34.1455 17.9534C34.1455 17.9534 33.8 17.9066 33.5432 18.0634C33.3666 18.1984 33.2259 18.3771 33.1341 18.583C33.1341 18.583 32.3886 20.6122 31.4023 22.3419C29.325 25.9791 28.4818 26.1804 28.1455 25.9534C27.3545 25.4221 27.55 23.8305 27.55 22.707C27.55 19.1681 28.0727 17.7053 26.5386 17.3238C26.0318 17.195 25.6591 17.1131 24.3636 17.1014H24.3614Z" fill="#424242"/>
</svg>
