<svg width="300" height="310" viewBox="0 0 300 310" fill="none" xmlns="http://www.w3.org/2000/svg">
<path d="M150 0.552246C67.1371 0.552246 0 69.6934 0 155.03C0 240.366 67.1371 309.507 150 309.507C232.863 309.507 300 240.366 300 155.03C300 69.6934 232.863 0.552246 150 0.552246ZM150 279.609C83.2863 279.609 29.0323 223.735 29.0323 155.03C29.0323 86.3247 83.2863 30.4511 150 30.4511C216.714 30.4511 270.968 86.3247 270.968 155.03C270.968 223.735 216.714 279.609 150 279.609ZM101.613 145.064C112.319 145.064 120.968 136.156 120.968 125.131C120.968 114.106 112.319 105.198 101.613 105.198C90.9073 105.198 82.2581 114.106 82.2581 125.131C82.2581 136.156 90.9073 145.064 101.613 145.064ZM198.387 145.064C209.093 145.064 217.742 136.156 217.742 125.131C217.742 114.106 209.093 105.198 198.387 105.198C187.681 105.198 179.032 114.106 179.032 125.131C179.032 136.156 187.681 145.064 198.387 145.064ZM200.806 190.286C188.226 205.858 169.657 214.828 150 214.828C130.343 214.828 111.774 205.92 99.1936 190.286C94.0524 183.932 84.8589 183.122 78.75 188.355C72.5806 193.649 71.7944 203.055 76.875 209.408C95.0202 231.833 121.694 244.664 150 244.664C178.306 244.664 204.98 231.833 223.125 209.408C228.266 203.055 227.419 193.649 221.25 188.355C215.141 183.122 205.948 183.932 200.806 190.286Z" fill="#424242" fill-opacity="0.1"/>
</svg>
