<svg width="150" height="136" viewBox="0 0 150 136" fill="none" xmlns="http://www.w3.org/2000/svg">
<path d="M94.4459 4.62077C93.9913 3.59994 93.2669 2.70802 92.3459 2.03503C91.4249 1.36203 90.3398 0.931761 89.2001 0.787645C88.0604 0.643531 86.9064 0.790665 85.8546 1.2142C84.8029 1.63774 83.8905 2.3227 83.2096 3.19995L1.97257 107.869C1.29379 108.744 0.868955 109.779 0.740689 110.87C0.612424 111.961 0.785234 113.071 1.24178 114.087C1.69834 115.103 2.42257 115.991 3.34185 116.66C4.26113 117.33 5.34312 117.758 6.47929 117.901L141.952 135.032C143.089 135.176 144.239 135.03 145.288 134.609C146.337 134.189 147.248 133.508 147.93 132.636C148.612 131.763 149.04 130.73 149.172 129.639C149.304 128.548 149.135 127.438 148.682 126.421L94.4459 4.62077ZM14.3829 108.795L87.5646 14.5046L136.423 124.227L14.3829 108.795Z" fill="#424242" fill-opacity="0.1"/>
</svg>
