<svg width="315" height="200" viewBox="0 0 315 200" fill="none" xmlns="http://www.w3.org/2000/svg">
<path d="M0 15C0 6.71573 6.71573 0 15 0H300C308.284 0 315 6.71573 315 15V17.6029H0V15Z" fill="#16161B"/>
<path d="M0 185.294H315C315 192.969 308.778 199.191 301.103 199.191H13.8971C6.22194 199.191 0 192.969 0 185.294Z" fill="#16161B"/>
<path d="M35.9037 70V57.1504H37.3978V68.6465H43.0668V70H35.9037ZM53.71 65.1748C53.71 66.7451 53.3145 67.9727 52.5234 68.8574C51.7324 69.7363 50.6396 70.1758 49.2451 70.1758C48.3838 70.1758 47.6191 69.9736 46.9512 69.5693C46.2832 69.165 45.7676 68.585 45.4043 67.8291C45.041 67.0732 44.8594 66.1885 44.8594 65.1748C44.8594 63.6045 45.252 62.3828 46.0371 61.5098C46.8223 60.6309 47.9121 60.1914 49.3066 60.1914C50.6543 60.1914 51.7236 60.6396 52.5146 61.5361C53.3115 62.4326 53.71 63.6455 53.71 65.1748ZM46.3711 65.1748C46.3711 66.4053 46.6172 67.3428 47.1094 67.9873C47.6016 68.6318 48.3252 68.9541 49.2803 68.9541C50.2354 68.9541 50.959 68.6348 51.4512 67.9961C51.9492 67.3516 52.1982 66.4111 52.1982 65.1748C52.1982 63.9502 51.9492 63.0215 51.4512 62.3887C50.959 61.75 50.2295 61.4307 49.2627 61.4307C48.3076 61.4307 47.5869 61.7441 47.1006 62.3711C46.6143 62.998 46.3711 63.9326 46.3711 65.1748ZM61.0309 60.1914C61.4586 60.1914 61.8424 60.2266 62.1823 60.2969L61.9801 61.6504C61.5817 61.5625 61.2301 61.5186 60.9254 61.5186C60.1461 61.5186 59.4782 61.835 58.9215 62.4678C58.3707 63.1006 58.0954 63.8887 58.0954 64.832V70H56.6364V60.3672H57.8405L58.0075 62.1514H58.0778C58.4352 61.5244 58.8659 61.041 59.3698 60.7012C59.8737 60.3613 60.4274 60.1914 61.0309 60.1914ZM68.4134 70.1758C66.9895 70.1758 65.8645 69.7422 65.0384 68.875C64.218 68.0078 63.8079 66.8037 63.8079 65.2627C63.8079 63.71 64.1888 62.4766 64.9505 61.5625C65.718 60.6484 66.7464 60.1914 68.0354 60.1914C69.2425 60.1914 70.1975 60.5898 70.9007 61.3867C71.6038 62.1777 71.9554 63.2236 71.9554 64.5244V65.4473H65.3196C65.3489 66.5781 65.6331 67.4365 66.1721 68.0225C66.7171 68.6084 67.4817 68.9014 68.4661 68.9014C69.5032 68.9014 70.5286 68.6846 71.5423 68.251V69.5518C71.0266 69.7744 70.5374 69.9326 70.0745 70.0264C69.6175 70.126 69.0638 70.1758 68.4134 70.1758ZM68.0179 61.4131C67.2444 61.4131 66.6263 61.665 66.1634 62.1689C65.7063 62.6729 65.4368 63.3701 65.3548 64.2607H70.3909C70.3909 63.3408 70.1858 62.6377 69.7757 62.1514C69.3655 61.6592 68.7796 61.4131 68.0179 61.4131ZM87.0898 70V63.7334C87.0898 62.9658 86.9257 62.3916 86.5976 62.0107C86.2695 61.624 85.7597 61.4307 85.0683 61.4307C84.1601 61.4307 83.4892 61.6914 83.0556 62.2129C82.622 62.7344 82.4052 63.5371 82.4052 64.6211V70H80.9462V63.7334C80.9462 62.9658 80.7821 62.3916 80.454 62.0107C80.1259 61.624 79.6132 61.4307 78.9159 61.4307C78.0019 61.4307 77.331 61.7061 76.9032 62.2568C76.4814 62.8018 76.2704 63.6982 76.2704 64.9463V70H74.8114V60.3672H75.998L76.2353 61.6855H76.3056C76.581 61.2168 76.9677 60.8506 77.4657 60.5869C77.9696 60.3232 78.5321 60.1914 79.1532 60.1914C80.6591 60.1914 81.6435 60.7363 82.1064 61.8262H82.1767C82.4638 61.3223 82.8798 60.9238 83.4247 60.6309C83.9696 60.3379 84.5907 60.1914 85.288 60.1914C86.3778 60.1914 87.1923 60.4727 87.7314 61.0352C88.2763 61.5918 88.5487 62.4854 88.5487 63.7158V70H87.0898ZM98.4182 70H96.9592V60.3672H98.4182V70ZM96.8361 57.7568C96.8361 57.4229 96.9182 57.1797 97.0822 57.0273C97.2463 56.8691 97.4514 56.79 97.6975 56.79C97.9318 56.79 98.134 56.8691 98.3039 57.0273C98.4738 57.1855 98.5588 57.4287 98.5588 57.7568C98.5588 58.085 98.4738 58.3311 98.3039 58.4951C98.134 58.6533 97.9318 58.7324 97.6975 58.7324C97.4514 58.7324 97.2463 58.6533 97.0822 58.4951C96.9182 58.3311 96.8361 58.085 96.8361 57.7568ZM106.354 70.1758C105.727 70.1758 105.153 70.0615 104.632 69.833C104.116 69.5986 103.682 69.2412 103.331 68.7607H103.225C103.296 69.3232 103.331 69.8564 103.331 70.3604V74.3242H101.872V60.3672H103.058L103.261 61.6855H103.331C103.706 61.1582 104.142 60.7773 104.64 60.543C105.139 60.3086 105.71 60.1914 106.354 60.1914C107.632 60.1914 108.616 60.6279 109.307 61.501C110.005 62.374 110.353 63.5986 110.353 65.1748C110.353 66.7568 109.999 67.9873 109.29 68.8662C108.587 69.7393 107.608 70.1758 106.354 70.1758ZM106.143 61.4307C105.159 61.4307 104.447 61.7031 104.008 62.248C103.568 62.793 103.343 63.6602 103.331 64.8496V65.1748C103.331 66.5283 103.556 67.498 104.008 68.084C104.459 68.6641 105.182 68.9541 106.179 68.9541C107.011 68.9541 107.661 68.6172 108.13 67.9434C108.604 67.2695 108.842 66.3408 108.842 65.1572C108.842 63.9561 108.604 63.0361 108.13 62.3975C107.661 61.7529 106.999 61.4307 106.143 61.4307ZM119.485 67.3721C119.485 68.2686 119.151 68.96 118.483 69.4463C117.815 69.9326 116.877 70.1758 115.67 70.1758C114.393 70.1758 113.397 69.9736 112.682 69.5693V68.2158C113.145 68.4502 113.64 68.6348 114.167 68.7695C114.701 68.9043 115.213 68.9717 115.706 68.9717C116.467 68.9717 117.053 68.8516 117.463 68.6113C117.874 68.3652 118.079 67.9932 118.079 67.4951C118.079 67.1201 117.915 66.8008 117.586 66.5371C117.264 66.2676 116.631 65.9512 115.688 65.5879C114.791 65.2539 114.153 64.9639 113.772 64.7178C113.397 64.4658 113.116 64.1816 112.928 63.8652C112.747 63.5488 112.656 63.1709 112.656 62.7314C112.656 61.9463 112.975 61.3281 113.614 60.877C114.252 60.4199 115.128 60.1914 116.242 60.1914C117.279 60.1914 118.292 60.4023 119.283 60.8242L118.764 62.0107C117.797 61.6123 116.921 61.4131 116.136 61.4131C115.445 61.4131 114.923 61.5215 114.572 61.7383C114.22 61.9551 114.044 62.2539 114.044 62.6348C114.044 62.8926 114.109 63.1123 114.238 63.2939C114.373 63.4756 114.586 63.6484 114.879 63.8125C115.172 63.9766 115.735 64.2139 116.567 64.5244C117.709 64.9404 118.48 65.3594 118.878 65.7812C119.283 66.2031 119.485 66.7334 119.485 67.3721ZM123.598 60.3672V66.6162C123.598 67.4014 123.776 67.9873 124.134 68.374C124.491 68.7607 125.051 68.9541 125.813 68.9541C126.82 68.9541 127.556 68.6787 128.019 68.1279C128.487 67.5771 128.722 66.6777 128.722 65.4297V60.3672H130.181V70H128.977L128.766 68.708H128.687C128.388 69.1826 127.972 69.5459 127.439 69.7979C126.911 70.0498 126.308 70.1758 125.628 70.1758C124.456 70.1758 123.577 69.8975 122.991 69.3408C122.411 68.7842 122.121 67.8936 122.121 66.6689V60.3672H123.598ZM145.922 70V63.7334C145.922 62.9658 145.758 62.3916 145.429 62.0107C145.101 61.624 144.592 61.4307 143.9 61.4307C142.992 61.4307 142.321 61.6914 141.887 62.2129C141.454 62.7344 141.237 63.5371 141.237 64.6211V70H139.778V63.7334C139.778 62.9658 139.614 62.3916 139.286 62.0107C138.958 61.624 138.445 61.4307 137.748 61.4307C136.834 61.4307 136.163 61.7061 135.735 62.2568C135.313 62.8018 135.102 63.6982 135.102 64.9463V70H133.643V60.3672H134.83L135.067 61.6855H135.137C135.413 61.2168 135.8 60.8506 136.298 60.5869C136.802 60.3232 137.364 60.1914 137.985 60.1914C139.491 60.1914 140.475 60.7363 140.938 61.8262H141.009C141.296 61.3223 141.712 60.9238 142.257 60.6309C142.802 60.3379 143.423 60.1914 144.12 60.1914C145.21 60.1914 146.024 60.4727 146.563 61.0352C147.108 61.5918 147.381 62.4854 147.381 63.7158V70H145.922ZM162.348 68.708H162.269C161.595 69.6865 160.587 70.1758 159.245 70.1758C157.985 70.1758 157.004 69.7451 156.301 68.8838C155.604 68.0225 155.255 66.7979 155.255 65.21C155.255 63.6221 155.606 62.3887 156.31 61.5098C157.013 60.6309 157.991 60.1914 159.245 60.1914C160.552 60.1914 161.554 60.666 162.251 61.6152H162.365L162.304 60.9209L162.269 60.2441V56.3242H163.728V70H162.541L162.348 68.708ZM159.43 68.9541C160.426 68.9541 161.147 68.6846 161.592 68.1455C162.043 67.6006 162.269 66.7246 162.269 65.5176V65.21C162.269 63.8447 162.04 62.8721 161.583 62.292C161.132 61.7061 160.408 61.4131 159.412 61.4131C158.557 61.4131 157.9 61.7471 157.443 62.415C156.992 63.0771 156.767 64.0146 156.767 65.2275C156.767 66.458 156.992 67.3867 157.443 68.0137C157.895 68.6406 158.557 68.9541 159.43 68.9541ZM175.505 65.1748C175.505 66.7451 175.109 67.9727 174.318 68.8574C173.527 69.7363 172.434 70.1758 171.04 70.1758C170.178 70.1758 169.414 69.9736 168.746 69.5693C168.078 69.165 167.562 68.585 167.199 67.8291C166.836 67.0732 166.654 66.1885 166.654 65.1748C166.654 63.6045 167.047 62.3828 167.832 61.5098C168.617 60.6309 169.707 60.1914 171.101 60.1914C172.449 60.1914 173.518 60.6396 174.309 61.5361C175.106 62.4326 175.505 63.6455 175.505 65.1748ZM168.166 65.1748C168.166 66.4053 168.412 67.3428 168.904 67.9873C169.396 68.6318 170.12 68.9541 171.075 68.9541C172.03 68.9541 172.754 68.6348 173.246 67.9961C173.744 67.3516 173.993 66.4111 173.993 65.1748C173.993 63.9502 173.744 63.0215 173.246 62.3887C172.754 61.75 172.024 61.4307 171.057 61.4307C170.102 61.4307 169.382 61.7441 168.895 62.3711C168.409 62.998 168.166 63.9326 168.166 65.1748ZM179.89 70H178.431V56.3242H179.89V70ZM191.658 65.1748C191.658 66.7451 191.263 67.9727 190.472 68.8574C189.681 69.7363 188.588 70.1758 187.193 70.1758C186.332 70.1758 185.567 69.9736 184.899 69.5693C184.231 69.165 183.716 68.585 183.352 67.8291C182.989 67.0732 182.808 66.1885 182.808 65.1748C182.808 63.6045 183.2 62.3828 183.985 61.5098C184.77 60.6309 185.86 60.1914 187.255 60.1914C188.602 60.1914 189.672 60.6396 190.463 61.5361C191.26 62.4326 191.658 63.6455 191.658 65.1748ZM184.319 65.1748C184.319 66.4053 184.565 67.3428 185.058 67.9873C185.55 68.6318 186.273 68.9541 187.228 68.9541C188.184 68.9541 188.907 68.6348 189.399 67.9961C189.897 67.3516 190.146 66.4111 190.146 65.1748C190.146 63.9502 189.897 63.0215 189.399 62.3887C188.907 61.75 188.178 61.4307 187.211 61.4307C186.256 61.4307 185.535 61.7441 185.049 62.3711C184.562 62.998 184.319 63.9326 184.319 65.1748ZM198.979 60.1914C199.407 60.1914 199.791 60.2266 200.13 60.2969L199.928 61.6504C199.53 61.5625 199.178 61.5186 198.874 61.5186C198.094 61.5186 197.426 61.835 196.87 62.4678C196.319 63.1006 196.044 63.8887 196.044 64.832V70H194.585V60.3672H195.789L195.956 62.1514H196.026C196.383 61.5244 196.814 61.041 197.318 60.7012C197.822 60.3613 198.376 60.1914 198.979 60.1914ZM213.542 67.3721C213.542 68.2686 213.208 68.96 212.54 69.4463C211.872 69.9326 210.934 70.1758 209.727 70.1758C208.45 70.1758 207.454 69.9736 206.739 69.5693V68.2158C207.202 68.4502 207.697 68.6348 208.224 68.7695C208.758 68.9043 209.27 68.9717 209.763 68.9717C210.524 68.9717 211.11 68.8516 211.52 68.6113C211.931 68.3652 212.136 67.9932 212.136 67.4951C212.136 67.1201 211.972 66.8008 211.643 66.5371C211.321 66.2676 210.688 65.9512 209.745 65.5879C208.849 65.2539 208.21 64.9639 207.829 64.7178C207.454 64.4658 207.173 64.1816 206.985 63.8652C206.804 63.5488 206.713 63.1709 206.713 62.7314C206.713 61.9463 207.032 61.3281 207.671 60.877C208.309 60.4199 209.185 60.1914 210.299 60.1914C211.336 60.1914 212.349 60.4023 213.34 60.8242L212.821 62.0107C211.854 61.6123 210.978 61.4131 210.193 61.4131C209.502 61.4131 208.98 61.5215 208.629 61.7383C208.277 61.9551 208.101 62.2539 208.101 62.6348C208.101 62.8926 208.166 63.1123 208.295 63.2939C208.43 63.4756 208.643 63.6484 208.936 63.8125C209.229 63.9766 209.792 64.2139 210.624 64.5244C211.766 64.9404 212.537 65.3594 212.935 65.7812C213.34 66.2031 213.542 66.7334 213.542 67.3721ZM217.743 70H216.284V60.3672H217.743V70ZM216.161 57.7568C216.161 57.4229 216.243 57.1797 216.407 57.0273C216.571 56.8691 216.776 56.79 217.022 56.79C217.256 56.79 217.459 56.8691 217.628 57.0273C217.798 57.1855 217.883 57.4287 217.883 57.7568C217.883 58.085 217.798 58.3311 217.628 58.4951C217.459 58.6533 217.256 58.7324 217.022 58.7324C216.776 58.7324 216.571 58.6533 216.407 58.4951C216.243 58.3311 216.161 58.085 216.161 57.7568ZM224.308 68.9717C224.566 68.9717 224.815 68.9541 225.055 68.9189C225.295 68.8779 225.486 68.8369 225.626 68.7959V69.9121C225.468 69.9883 225.234 70.0498 224.923 70.0967C224.618 70.1494 224.343 70.1758 224.097 70.1758C222.234 70.1758 221.302 69.1943 221.302 67.2314V61.501H219.922V60.7979L221.302 60.1914L221.917 58.1348H222.761V60.3672H225.556V61.501H222.761V67.1699C222.761 67.75 222.899 68.1953 223.174 68.5059C223.449 68.8164 223.827 68.9717 224.308 68.9717ZM238.879 70L238.589 68.6289H238.519C238.039 69.2324 237.558 69.6426 237.078 69.8594C236.603 70.0703 236.008 70.1758 235.293 70.1758C234.338 70.1758 233.588 69.9297 233.043 69.4375C232.504 68.9453 232.235 68.2451 232.235 67.3369C232.235 65.3916 233.79 64.3721 236.902 64.2783L238.537 64.2256V63.6279C238.537 62.8721 238.372 62.3154 238.044 61.958C237.722 61.5947 237.204 61.4131 236.489 61.4131C235.686 61.4131 234.778 61.6592 233.764 62.1514L233.316 61.0352C233.79 60.7773 234.309 60.5752 234.872 60.4287C235.44 60.2822 236.008 60.209 236.577 60.209C237.725 60.209 238.575 60.4639 239.125 60.9736C239.682 61.4834 239.96 62.3008 239.96 63.4258V70H238.879ZM235.583 68.9717C236.492 68.9717 237.204 68.7227 237.719 68.2246C238.241 67.7266 238.501 67.0293 238.501 66.1328V65.2627L237.042 65.3242C235.882 65.3652 235.044 65.5469 234.529 65.8691C234.019 66.1855 233.764 66.6807 233.764 67.3545C233.764 67.8818 233.922 68.2832 234.239 68.5586C234.561 68.834 235.009 68.9717 235.583 68.9717ZM255.613 70V63.7334C255.613 62.9658 255.449 62.3916 255.121 62.0107C254.793 61.624 254.283 61.4307 253.592 61.4307C252.684 61.4307 252.013 61.6914 251.579 62.2129C251.146 62.7344 250.929 63.5371 250.929 64.6211V70H249.47V63.7334C249.47 62.9658 249.306 62.3916 248.978 62.0107C248.649 61.624 248.137 61.4307 247.44 61.4307C246.525 61.4307 245.855 61.7061 245.427 62.2568C245.005 62.8018 244.794 63.6982 244.794 64.9463V70H243.335V60.3672H244.522L244.759 61.6855H244.829C245.105 61.2168 245.491 60.8506 245.989 60.5869C246.493 60.3232 247.056 60.1914 247.677 60.1914C249.183 60.1914 250.167 60.7363 250.63 61.8262H250.7C250.987 61.3223 251.403 60.9238 251.948 60.6309C252.493 60.3379 253.114 60.1914 253.812 60.1914C254.901 60.1914 255.716 60.4727 256.255 61.0352C256.8 61.5918 257.072 62.4854 257.072 63.7158V70H255.613ZM264.516 70.1758C263.092 70.1758 261.967 69.7422 261.141 68.875C260.321 68.0078 259.911 66.8037 259.911 65.2627C259.911 63.71 260.292 62.4766 261.053 61.5625C261.821 60.6484 262.849 60.1914 264.138 60.1914C265.345 60.1914 266.301 60.5898 267.004 61.3867C267.707 62.1777 268.058 63.2236 268.058 64.5244V65.4473H261.423C261.452 66.5781 261.736 67.4365 262.275 68.0225C262.82 68.6084 263.585 68.9014 264.569 68.9014C265.606 68.9014 266.632 68.6846 267.645 68.251V69.5518C267.13 69.7744 266.64 69.9326 266.177 70.0264C265.72 70.126 265.167 70.1758 264.516 70.1758ZM264.121 61.4131C263.347 61.4131 262.729 61.665 262.266 62.1689C261.809 62.6729 261.54 63.3701 261.458 64.2607H266.494C266.494 63.3408 266.289 62.6377 265.879 62.1514C265.468 61.6592 264.883 61.4131 264.121 61.4131ZM274.026 68.9717C274.284 68.9717 274.533 68.9541 274.773 68.9189C275.013 68.8779 275.203 68.8369 275.344 68.7959V69.9121C275.186 69.9883 274.952 70.0498 274.641 70.0967C274.336 70.1494 274.061 70.1758 273.815 70.1758C271.952 70.1758 271.02 69.1943 271.02 67.2314V61.501H269.64V60.7979L271.02 60.1914L271.635 58.1348H272.479V60.3672H275.274V61.501H272.479V67.1699C272.479 67.75 272.617 68.1953 272.892 68.5059C273.167 68.8164 273.545 68.9717 274.026 68.9717ZM279.167 67.9082L279.299 68.1104C279.146 68.6963 278.927 69.376 278.64 70.1494C278.353 70.9287 278.054 71.6523 277.743 72.3203H276.645C276.803 71.7109 276.976 70.958 277.163 70.0615C277.356 69.165 277.491 68.4473 277.567 67.9082H279.167ZM46.7452 95.1758C45.3506 95.1758 44.2696 94.748 43.502 93.8926C42.7403 93.0312 42.3594 91.8154 42.3594 90.2451C42.3594 88.6338 42.7461 87.3887 43.5196 86.5098C44.2989 85.6309 45.4063 85.1914 46.8418 85.1914C47.3047 85.1914 47.7676 85.2412 48.2305 85.3408C48.6934 85.4404 49.0567 85.5576 49.3204 85.6924L48.8721 86.9316C48.5498 86.8027 48.1983 86.6973 47.8174 86.6152C47.4366 86.5273 47.0996 86.4834 46.8067 86.4834C44.8496 86.4834 43.8711 87.7314 43.8711 90.2275C43.8711 91.4111 44.1084 92.3193 44.583 92.9521C45.0635 93.585 45.7725 93.9014 46.71 93.9014C47.5127 93.9014 48.336 93.7285 49.1797 93.3828V94.6748C48.5352 95.0088 47.7237 95.1758 46.7452 95.1758ZM60.1481 90.1748C60.1481 91.7451 59.7526 92.9727 58.9616 93.8574C58.1706 94.7363 57.0778 95.1758 55.6833 95.1758C54.822 95.1758 54.0573 94.9736 53.3893 94.5693C52.7214 94.165 52.2057 93.585 51.8425 92.8291C51.4792 92.0732 51.2975 91.1885 51.2975 90.1748C51.2975 88.6045 51.6901 87.3828 52.4753 86.5098C53.2604 85.6309 54.3503 85.1914 55.7448 85.1914C57.0925 85.1914 58.1618 85.6396 58.9528 86.5361C59.7497 87.4326 60.1481 88.6455 60.1481 90.1748ZM52.8093 90.1748C52.8093 91.4053 53.0554 92.3428 53.5475 92.9873C54.0397 93.6318 54.7634 93.9541 55.7184 93.9541C56.6735 93.9541 57.3971 93.6348 57.8893 92.9961C58.3874 92.3516 58.6364 91.4111 58.6364 90.1748C58.6364 88.9502 58.3874 88.0215 57.8893 87.3887C57.3971 86.75 56.6677 86.4307 55.7009 86.4307C54.7458 86.4307 54.0251 86.7441 53.5387 87.3711C53.0524 87.998 52.8093 88.9326 52.8093 90.1748ZM69.6663 95V88.7686C69.6663 87.9834 69.4876 87.3975 69.1302 87.0107C68.7728 86.624 68.2132 86.4307 67.4515 86.4307C66.4437 86.4307 65.7054 86.7031 65.2366 87.248C64.7679 87.793 64.5335 88.6924 64.5335 89.9463V95H63.0745V85.3672H64.2611L64.4984 86.6855H64.5687C64.8675 86.2109 65.2864 85.8447 65.8255 85.5869C66.3646 85.3232 66.9652 85.1914 67.6273 85.1914C68.7874 85.1914 69.6605 85.4727 70.2464 86.0352C70.8323 86.5918 71.1253 87.4854 71.1253 88.7158V95H69.6663ZM80.705 92.3721C80.705 93.2686 80.3711 93.96 79.7031 94.4463C79.0351 94.9326 78.0976 95.1758 76.8906 95.1758C75.6132 95.1758 74.6171 94.9736 73.9023 94.5693V93.2158C74.3652 93.4502 74.8603 93.6348 75.3877 93.7695C75.9209 93.9043 76.4336 93.9717 76.9257 93.9717C77.6875 93.9717 78.2734 93.8516 78.6836 93.6113C79.0937 93.3652 79.2988 92.9932 79.2988 92.4951C79.2988 92.1201 79.1347 91.8008 78.8066 91.5371C78.4843 91.2676 77.8515 90.9512 76.9082 90.5879C76.0117 90.2539 75.373 89.9639 74.9921 89.7178C74.6171 89.4658 74.3359 89.1816 74.1484 88.8652C73.9668 88.5488 73.8759 88.1709 73.8759 87.7314C73.8759 86.9463 74.1953 86.3281 74.8339 85.877C75.4726 85.4199 76.3486 85.1914 77.4619 85.1914C78.499 85.1914 79.5127 85.4023 80.5029 85.8242L79.9843 87.0107C79.0175 86.6123 78.1416 86.4131 77.3564 86.4131C76.665 86.4131 76.1435 86.5215 75.792 86.7383C75.4404 86.9551 75.2646 87.2539 75.2646 87.6348C75.2646 87.8926 75.3291 88.1123 75.458 88.2939C75.5927 88.4756 75.8066 88.6484 76.0996 88.8125C76.3925 88.9766 76.955 89.2139 77.7871 89.5244C78.9296 89.9404 79.7002 90.3594 80.0986 90.7812C80.5029 91.2031 80.705 91.7334 80.705 92.3721ZM87.5162 95.1758C86.0924 95.1758 84.9674 94.7422 84.1412 93.875C83.3209 93.0078 82.9107 91.8037 82.9107 90.2627C82.9107 88.71 83.2916 87.4766 84.0533 86.5625C84.8209 85.6484 85.8492 85.1914 87.1383 85.1914C88.3453 85.1914 89.3004 85.5898 90.0035 86.3867C90.7066 87.1777 91.0582 88.2236 91.0582 89.5244V90.4473H84.4225C84.4518 91.5781 84.7359 92.4365 85.275 93.0225C85.8199 93.6084 86.5846 93.9014 87.5689 93.9014C88.6061 93.9014 89.6314 93.6846 90.6451 93.251V94.5518C90.1295 94.7744 89.6402 94.9326 89.1773 95.0264C88.7203 95.126 88.1666 95.1758 87.5162 95.1758ZM87.1207 86.4131C86.3473 86.4131 85.7291 86.665 85.2662 87.1689C84.8092 87.6729 84.5396 88.3701 84.4576 89.2607H89.4937C89.4937 88.3408 89.2887 87.6377 88.8785 87.1514C88.4684 86.6592 87.8824 86.4131 87.1207 86.4131ZM97.7639 95.1758C96.3694 95.1758 95.2883 94.748 94.5207 93.8926C93.759 93.0312 93.3782 91.8154 93.3782 90.2451C93.3782 88.6338 93.7649 87.3887 94.5383 86.5098C95.3176 85.6309 96.425 85.1914 97.8606 85.1914C98.3235 85.1914 98.7864 85.2412 99.2493 85.3408C99.7121 85.4404 100.075 85.5576 100.339 85.6924L99.8909 86.9316C99.5686 86.8027 99.217 86.6973 98.8362 86.6152C98.4553 86.5273 98.1184 86.4834 97.8254 86.4834C95.8684 86.4834 94.8899 87.7314 94.8899 90.2275C94.8899 91.4111 95.1272 92.3193 95.6018 92.9521C96.0823 93.585 96.7912 93.9014 97.7287 93.9014C98.5315 93.9014 99.3547 93.7285 100.198 93.3828V94.6748C99.5539 95.0088 98.7424 95.1758 97.7639 95.1758ZM105.964 93.9717C106.222 93.9717 106.471 93.9541 106.711 93.9189C106.951 93.8779 107.141 93.8369 107.282 93.7959V94.9121C107.124 94.9883 106.89 95.0498 106.579 95.0967C106.274 95.1494 105.999 95.1758 105.753 95.1758C103.89 95.1758 102.958 94.1943 102.958 92.2314V86.501H101.578V85.7979L102.958 85.1914L103.573 83.1348H104.417V85.3672H107.212V86.501H104.417V92.1699C104.417 92.75 104.555 93.1953 104.83 93.5059C105.105 93.8164 105.483 93.9717 105.964 93.9717ZM113.645 95.1758C112.221 95.1758 111.096 94.7422 110.27 93.875C109.45 93.0078 109.04 91.8037 109.04 90.2627C109.04 88.71 109.42 87.4766 110.182 86.5625C110.95 85.6484 111.978 85.1914 113.267 85.1914C114.474 85.1914 115.429 85.5898 116.132 86.3867C116.835 87.1777 117.187 88.2236 117.187 89.5244V90.4473H110.551C110.581 91.5781 110.865 92.4365 111.404 93.0225C111.949 93.6084 112.713 93.9014 113.698 93.9014C114.735 93.9014 115.76 93.6846 116.774 93.251V94.5518C116.258 94.7744 115.769 94.9326 115.306 95.0264C114.849 95.126 114.295 95.1758 113.645 95.1758ZM113.25 86.4131C112.476 86.4131 111.858 86.665 111.395 87.1689C110.938 87.6729 110.668 88.3701 110.586 89.2607H115.623C115.623 88.3408 115.417 87.6377 115.007 87.1514C114.597 86.6592 114.011 86.4131 113.25 86.4131ZM123.154 93.9717C123.412 93.9717 123.661 93.9541 123.902 93.9189C124.142 93.8779 124.332 93.8369 124.473 93.7959V94.9121C124.315 94.9883 124.08 95.0498 123.77 95.0967C123.465 95.1494 123.19 95.1758 122.944 95.1758C121.08 95.1758 120.149 94.1943 120.149 92.2314V86.501H118.769V85.7979L120.149 85.1914L120.764 83.1348H121.608V85.3672H124.402V86.501H121.608V92.1699C121.608 92.75 121.745 93.1953 122.021 93.5059C122.296 93.8164 122.674 93.9717 123.154 93.9717ZM128.137 85.3672V91.6162C128.137 92.4014 128.316 92.9873 128.674 93.374C129.031 93.7607 129.591 93.9541 130.352 93.9541C131.36 93.9541 132.096 93.6787 132.558 93.1279C133.027 92.5771 133.262 91.6777 133.262 90.4297V85.3672H134.721V95H133.516L133.305 93.708H133.226C132.928 94.1826 132.512 94.5459 131.978 94.7979C131.451 95.0498 130.847 95.1758 130.168 95.1758C128.996 95.1758 128.117 94.8975 127.531 94.3408C126.951 93.7842 126.661 92.8936 126.661 91.6689V85.3672H128.137ZM142.578 85.1914C143.005 85.1914 143.389 85.2266 143.729 85.2969L143.527 86.6504C143.128 86.5625 142.777 86.5186 142.472 86.5186C141.693 86.5186 141.025 86.835 140.468 87.4678C139.917 88.1006 139.642 88.8887 139.642 89.832V95H138.183V85.3672H139.387L139.554 87.1514H139.624C139.982 86.5244 140.413 86.041 140.916 85.7012C141.42 85.3613 141.974 85.1914 142.578 85.1914ZM156.85 95L156.56 93.6289H156.49C156.009 94.2324 155.529 94.6426 155.049 94.8594C154.574 95.0703 153.979 95.1758 153.264 95.1758C152.309 95.1758 151.559 94.9297 151.014 94.4375C150.475 93.9453 150.206 93.2451 150.206 92.3369C150.206 90.3916 151.761 89.3721 154.873 89.2783L156.508 89.2256V88.6279C156.508 87.8721 156.343 87.3154 156.015 86.958C155.693 86.5947 155.175 86.4131 154.46 86.4131C153.657 86.4131 152.749 86.6592 151.735 87.1514L151.287 86.0352C151.761 85.7773 152.28 85.5752 152.842 85.4287C153.411 85.2822 153.979 85.209 154.548 85.209C155.696 85.209 156.546 85.4639 157.096 85.9736C157.653 86.4834 157.931 87.3008 157.931 88.4258V95H156.85ZM153.554 93.9717C154.463 93.9717 155.175 93.7227 155.69 93.2246C156.212 92.7266 156.472 92.0293 156.472 91.1328V90.2627L155.013 90.3242C153.853 90.3652 153.015 90.5469 152.5 90.8691C151.99 91.1855 151.735 91.6807 151.735 92.3545C151.735 92.8818 151.893 93.2832 152.21 93.5586C152.532 93.834 152.98 93.9717 153.554 93.9717ZM167.863 93.708H167.784C167.11 94.6865 166.102 95.1758 164.76 95.1758C163.5 95.1758 162.519 94.7451 161.816 93.8838C161.119 93.0225 160.77 91.7979 160.77 90.21C160.77 88.6221 161.121 87.3887 161.825 86.5098C162.528 85.6309 163.506 85.1914 164.76 85.1914C166.067 85.1914 167.069 85.666 167.766 86.6152H167.88L167.819 85.9209L167.784 85.2441V81.3242H169.243V95H168.056L167.863 93.708ZM164.945 93.9541C165.941 93.9541 166.661 93.6846 167.107 93.1455C167.558 92.6006 167.784 91.7246 167.784 90.5176V90.21C167.784 88.8447 167.555 87.8721 167.098 87.292C166.647 86.7061 165.923 86.4131 164.927 86.4131C164.072 86.4131 163.415 86.7471 162.958 87.415C162.507 88.0771 162.282 89.0146 162.282 90.2275C162.282 91.458 162.507 92.3867 162.958 93.0137C163.41 93.6406 164.072 93.9541 164.945 93.9541ZM174.164 95H172.705V85.3672H174.164V95ZM172.582 82.7568C172.582 82.4229 172.664 82.1797 172.828 82.0273C172.992 81.8691 173.197 81.79 173.443 81.79C173.678 81.79 173.88 81.8691 174.05 82.0273C174.22 82.1855 174.305 82.4287 174.305 82.7568C174.305 83.085 174.22 83.3311 174.05 83.4951C173.88 83.6533 173.678 83.7324 173.443 83.7324C173.197 83.7324 172.992 83.6533 172.828 83.4951C172.664 83.3311 172.582 83.085 172.582 82.7568ZM182.1 95.1758C181.473 95.1758 180.899 95.0615 180.378 94.833C179.862 94.5986 179.428 94.2412 179.077 93.7607H178.971C179.042 94.3232 179.077 94.8564 179.077 95.3604V99.3242H177.618V85.3672H178.804L179.006 86.6855H179.077C179.452 86.1582 179.888 85.7773 180.386 85.543C180.884 85.3086 181.456 85.1914 182.1 85.1914C183.378 85.1914 184.362 85.6279 185.053 86.501C185.751 87.374 186.099 88.5986 186.099 90.1748C186.099 91.7568 185.745 92.9873 185.036 93.8662C184.333 94.7393 183.354 95.1758 182.1 95.1758ZM181.889 86.4307C180.905 86.4307 180.193 86.7031 179.754 87.248C179.314 87.793 179.089 88.6602 179.077 89.8496V90.1748C179.077 91.5283 179.302 92.498 179.754 93.084C180.205 93.6641 180.928 93.9541 181.924 93.9541C182.756 93.9541 183.407 93.6172 183.876 92.9434C184.35 92.2695 184.588 91.3408 184.588 90.1572C184.588 88.9561 184.35 88.0361 183.876 87.3975C183.407 86.7529 182.745 86.4307 181.889 86.4307ZM190.476 95H189.017V85.3672H190.476V95ZM188.894 82.7568C188.894 82.4229 188.976 82.1797 189.14 82.0273C189.304 81.8691 189.509 81.79 189.755 81.79C189.99 81.79 190.192 81.8691 190.362 82.0273C190.532 82.1855 190.616 82.4287 190.616 82.7568C190.616 83.085 190.532 83.3311 190.362 83.4951C190.192 83.6533 189.99 83.7324 189.755 83.7324C189.509 83.7324 189.304 83.6533 189.14 83.4951C188.976 83.3311 188.894 83.085 188.894 82.7568ZM200.143 92.3721C200.143 93.2686 199.809 93.96 199.142 94.4463C198.474 94.9326 197.536 95.1758 196.329 95.1758C195.052 95.1758 194.056 94.9736 193.341 94.5693V93.2158C193.804 93.4502 194.299 93.6348 194.826 93.7695C195.359 93.9043 195.872 93.9717 196.364 93.9717C197.126 93.9717 197.712 93.8516 198.122 93.6113C198.532 93.3652 198.737 92.9932 198.737 92.4951C198.737 92.1201 198.573 91.8008 198.245 91.5371C197.923 91.2676 197.29 90.9512 196.347 90.5879C195.45 90.2539 194.811 89.9639 194.431 89.7178C194.056 89.4658 193.774 89.1816 193.587 88.8652C193.405 88.5488 193.314 88.1709 193.314 87.7314C193.314 86.9463 193.634 86.3281 194.272 85.877C194.911 85.4199 195.787 85.1914 196.9 85.1914C197.937 85.1914 198.951 85.4023 199.941 85.8242L199.423 87.0107C198.456 86.6123 197.58 86.4131 196.795 86.4131C196.103 86.4131 195.582 86.5215 195.23 86.7383C194.879 86.9551 194.703 87.2539 194.703 87.6348C194.703 87.8926 194.767 88.1123 194.896 88.2939C195.031 88.4756 195.245 88.6484 195.538 88.8125C195.831 88.9766 196.393 89.2139 197.225 89.5244C198.368 89.9404 199.139 90.3594 199.537 90.7812C199.941 91.2031 200.143 91.7334 200.143 92.3721ZM206.735 95.1758C205.34 95.1758 204.259 94.748 203.492 93.8926C202.73 93.0312 202.349 91.8154 202.349 90.2451C202.349 88.6338 202.736 87.3887 203.509 86.5098C204.289 85.6309 205.396 85.1914 206.832 85.1914C207.294 85.1914 207.757 85.2412 208.22 85.3408C208.683 85.4404 209.046 85.5576 209.31 85.6924L208.862 86.9316C208.54 86.8027 208.188 86.6973 207.807 86.6152C207.426 86.5273 207.089 86.4834 206.796 86.4834C204.839 86.4834 203.861 87.7314 203.861 90.2275C203.861 91.4111 204.098 92.3193 204.573 92.9521C205.053 93.585 205.762 93.9014 206.7 93.9014C207.503 93.9014 208.326 93.7285 209.169 93.3828V94.6748C208.525 95.0088 207.713 95.1758 206.735 95.1758ZM213.282 95H211.823V85.3672H213.282V95ZM211.7 82.7568C211.7 82.4229 211.782 82.1797 211.946 82.0273C212.111 81.8691 212.316 81.79 212.562 81.79C212.796 81.79 212.998 81.8691 213.168 82.0273C213.338 82.1855 213.423 82.4287 213.423 82.7568C213.423 83.085 213.338 83.3311 213.168 83.4951C212.998 83.6533 212.796 83.7324 212.562 83.7324C212.316 83.7324 212.111 83.6533 211.946 83.4951C211.782 83.3311 211.7 83.085 211.7 82.7568ZM223.328 95V88.7686C223.328 87.9834 223.149 87.3975 222.792 87.0107C222.434 86.624 221.875 86.4307 221.113 86.4307C220.105 86.4307 219.367 86.7031 218.898 87.248C218.43 87.793 218.195 88.6924 218.195 89.9463V95H216.736V85.3672H217.923L218.16 86.6855H218.23C218.529 86.2109 218.948 85.8447 219.487 85.5869C220.026 85.3232 220.627 85.1914 221.289 85.1914C222.449 85.1914 223.322 85.4727 223.908 86.0352C224.494 86.5918 224.787 87.4854 224.787 88.7158V95H223.328ZM236.037 85.3672V86.29L234.252 86.501C234.416 86.7061 234.563 86.9756 234.692 87.3096C234.821 87.6377 234.885 88.0098 234.885 88.4258C234.885 89.3691 234.563 90.1221 233.918 90.6846C233.274 91.2471 232.389 91.5283 231.264 91.5283C230.977 91.5283 230.707 91.5049 230.456 91.458C229.834 91.7861 229.524 92.1992 229.524 92.6973C229.524 92.9609 229.632 93.1572 229.849 93.2861C230.066 93.4092 230.438 93.4707 230.965 93.4707H232.67C233.713 93.4707 234.513 93.6904 235.07 94.1299C235.632 94.5693 235.914 95.208 235.914 96.0459C235.914 97.1123 235.486 97.9238 234.63 98.4805C233.775 99.043 232.527 99.3242 230.886 99.3242C229.626 99.3242 228.654 99.0898 227.968 98.6211C227.289 98.1523 226.949 97.4902 226.949 96.6348C226.949 96.0488 227.136 95.542 227.511 95.1143C227.886 94.6865 228.414 94.3965 229.093 94.2441C228.847 94.1328 228.639 93.96 228.469 93.7256C228.305 93.4912 228.223 93.2188 228.223 92.9082C228.223 92.5566 228.317 92.249 228.504 91.9854C228.692 91.7217 228.988 91.4668 229.392 91.2207C228.894 91.0156 228.487 90.667 228.17 90.1748C227.86 89.6826 227.705 89.1201 227.705 88.4873C227.705 87.4326 228.021 86.6211 228.654 86.0527C229.287 85.4785 230.183 85.1914 231.343 85.1914C231.847 85.1914 232.301 85.25 232.706 85.3672H236.037ZM228.355 96.6172C228.355 97.1387 228.575 97.5342 229.014 97.8037C229.454 98.0732 230.083 98.208 230.904 98.208C232.128 98.208 233.034 98.0234 233.62 97.6543C234.211 97.291 234.507 96.7959 234.507 96.1689C234.507 95.6475 234.346 95.2842 234.024 95.0791C233.702 94.8799 233.095 94.7803 232.205 94.7803H230.456C229.793 94.7803 229.278 94.9385 228.909 95.2549C228.54 95.5713 228.355 96.0254 228.355 96.6172ZM229.146 88.4521C229.146 89.126 229.336 89.6357 229.717 89.9814C230.098 90.3271 230.628 90.5 231.308 90.5C232.732 90.5 233.444 89.8086 233.444 88.4258C233.444 86.9785 232.723 86.2549 231.282 86.2549C230.596 86.2549 230.069 86.4395 229.7 86.8086C229.331 87.1777 229.146 87.7256 229.146 88.4521ZM247.479 95.1758C246.055 95.1758 244.93 94.7422 244.104 93.875C243.284 93.0078 242.874 91.8037 242.874 90.2627C242.874 88.71 243.255 87.4766 244.016 86.5625C244.784 85.6484 245.812 85.1914 247.101 85.1914C248.308 85.1914 249.263 85.5898 249.967 86.3867C250.67 87.1777 251.021 88.2236 251.021 89.5244V90.4473H244.385C244.415 91.5781 244.699 92.4365 245.238 93.0225C245.783 93.6084 246.548 93.9014 247.532 93.9014C248.569 93.9014 249.594 93.6846 250.608 93.251V94.5518C250.093 94.7744 249.603 94.9326 249.14 95.0264C248.683 95.126 248.13 95.1758 247.479 95.1758ZM247.084 86.4131C246.31 86.4131 245.692 86.665 245.229 87.1689C244.772 87.6729 244.503 88.3701 244.421 89.2607H249.457C249.457 88.3408 249.252 87.6377 248.842 87.1514C248.431 86.6592 247.845 86.4131 247.084 86.4131ZM255.336 95H253.877V81.3242H255.336V95ZM260.249 95H258.79V85.3672H260.249V95ZM258.667 82.7568C258.667 82.4229 258.749 82.1797 258.913 82.0273C259.077 81.8691 259.282 81.79 259.528 81.79C259.763 81.79 259.965 81.8691 260.135 82.0273C260.305 82.1855 260.39 82.4287 260.39 82.7568C260.39 83.085 260.305 83.3311 260.135 83.4951C259.965 83.6533 259.763 83.7324 259.528 83.7324C259.282 83.7324 259.077 83.6533 258.913 83.4951C258.749 83.3311 258.667 83.085 258.667 82.7568ZM266.814 93.9717C267.072 93.9717 267.321 93.9541 267.561 93.9189C267.801 93.8779 267.992 93.8369 268.133 93.7959V94.9121C267.974 94.9883 267.74 95.0498 267.429 95.0967C267.125 95.1494 266.849 95.1758 266.603 95.1758C264.74 95.1758 263.808 94.1943 263.808 92.2314V86.501H262.428V85.7979L263.808 85.1914L264.424 83.1348H265.267V85.3672H268.062V86.501H265.267V92.1699C265.267 92.75 265.405 93.1953 265.68 93.5059C265.956 93.8164 266.334 93.9717 266.814 93.9717ZM271.955 92.9082L272.087 93.1104C271.935 93.6963 271.715 94.376 271.428 95.1494C271.141 95.9287 270.842 96.6523 270.532 97.3203H269.433C269.591 96.7109 269.764 95.958 269.951 95.0615C270.145 94.165 270.28 93.4473 270.356 92.9082H271.955ZM60.8987 117.372C60.8987 118.269 60.5647 118.96 59.8968 119.446C59.2288 119.933 58.2913 120.176 57.0843 120.176C55.8069 120.176 54.8108 119.974 54.096 119.569V118.216C54.5589 118.45 55.054 118.635 55.5813 118.77C56.1145 118.904 56.6272 118.972 57.1194 118.972C57.8811 118.972 58.4671 118.852 58.8772 118.611C59.2874 118.365 59.4925 117.993 59.4925 117.495C59.4925 117.12 59.3284 116.801 59.0003 116.537C58.678 116.268 58.0452 115.951 57.1018 115.588C56.2054 115.254 55.5667 114.964 55.1858 114.718C54.8108 114.466 54.5296 114.182 54.3421 113.865C54.1604 113.549 54.0696 113.171 54.0696 112.731C54.0696 111.946 54.3889 111.328 55.0276 110.877C55.6663 110.42 56.5423 110.191 57.6555 110.191C58.6927 110.191 59.7063 110.402 60.6966 110.824L60.178 112.011C59.2112 111.612 58.3352 111.413 57.5501 111.413C56.8587 111.413 56.3372 111.521 55.9856 111.738C55.6341 111.955 55.4583 112.254 55.4583 112.635C55.4583 112.893 55.5227 113.112 55.6516 113.294C55.7864 113.476 56.0003 113.648 56.2932 113.812C56.5862 113.977 57.1487 114.214 57.9807 114.524C59.1233 114.94 59.8938 115.359 60.2923 115.781C60.6966 116.203 60.8987 116.733 60.8987 117.372ZM67.7099 120.176C66.2861 120.176 65.1611 119.742 64.3349 118.875C63.5146 118.008 63.1044 116.804 63.1044 115.263C63.1044 113.71 63.4853 112.477 64.247 111.562C65.0146 110.648 66.0429 110.191 67.332 110.191C68.539 110.191 69.4941 110.59 70.1972 111.387C70.9003 112.178 71.2519 113.224 71.2519 114.524V115.447H64.6161C64.6454 116.578 64.9296 117.437 65.4687 118.022C66.0136 118.608 66.7782 118.901 67.7626 118.901C68.7997 118.901 69.8251 118.685 70.8388 118.251V119.552C70.3232 119.774 69.8339 119.933 69.371 120.026C68.914 120.126 68.3603 120.176 67.7099 120.176ZM67.3144 111.413C66.5409 111.413 65.9228 111.665 65.4599 112.169C65.0029 112.673 64.7333 113.37 64.6513 114.261H69.6874C69.6874 113.341 69.4823 112.638 69.0722 112.151C68.662 111.659 68.0761 111.413 67.3144 111.413ZM80.6646 118.708H80.5855C79.9117 119.687 78.9039 120.176 77.5621 120.176C76.3023 120.176 75.3209 119.745 74.6177 118.884C73.9205 118.022 73.5718 116.798 73.5718 115.21C73.5718 113.622 73.9234 112.389 74.6265 111.51C75.3297 110.631 76.3082 110.191 77.5621 110.191C78.8687 110.191 79.8707 110.666 80.5679 111.615H80.6822L80.6207 110.921L80.5855 110.244V106.324H82.0445V120H80.858L80.6646 118.708ZM77.7466 118.954C78.7427 118.954 79.4634 118.685 79.9088 118.146C80.3599 117.601 80.5855 116.725 80.5855 115.518V115.21C80.5855 113.845 80.357 112.872 79.9 112.292C79.4488 111.706 78.7252 111.413 77.7291 111.413C76.8736 111.413 76.2173 111.747 75.7603 112.415C75.3091 113.077 75.0836 114.015 75.0836 115.228C75.0836 116.458 75.3091 117.387 75.7603 118.014C76.2115 118.641 76.8736 118.954 77.7466 118.954ZM97.0995 118.708H97.0204C96.3465 119.687 95.3387 120.176 93.9969 120.176C92.7371 120.176 91.7557 119.745 91.0526 118.884C90.3553 118.022 90.0067 116.798 90.0067 115.21C90.0067 113.622 90.3582 112.389 91.0614 111.51C91.7645 110.631 92.743 110.191 93.9969 110.191C95.3036 110.191 96.3055 110.666 97.0028 111.615H97.117L97.0555 110.921L97.0204 110.244V106.324H98.4793V120H97.2928L97.0995 118.708ZM94.1815 118.954C95.1776 118.954 95.8983 118.685 96.3436 118.146C96.7948 117.601 97.0204 116.725 97.0204 115.518V115.21C97.0204 113.845 96.7918 112.872 96.3348 112.292C95.8836 111.706 95.16 111.413 94.1639 111.413C93.3084 111.413 92.6522 111.747 92.1952 112.415C91.744 113.077 91.5184 114.015 91.5184 115.228C91.5184 116.458 91.744 117.387 92.1952 118.014C92.6463 118.641 93.3084 118.954 94.1815 118.954ZM110.256 115.175C110.256 116.745 109.861 117.973 109.07 118.857C108.279 119.736 107.186 120.176 105.791 120.176C104.93 120.176 104.166 119.974 103.498 119.569C102.83 119.165 102.314 118.585 101.951 117.829C101.587 117.073 101.406 116.188 101.406 115.175C101.406 113.604 101.798 112.383 102.583 111.51C103.369 110.631 104.458 110.191 105.853 110.191C107.201 110.191 108.27 110.64 109.061 111.536C109.858 112.433 110.256 113.646 110.256 115.175ZM102.917 115.175C102.917 116.405 103.164 117.343 103.656 117.987C104.148 118.632 104.872 118.954 105.827 118.954C106.782 118.954 107.505 118.635 107.998 117.996C108.496 117.352 108.745 116.411 108.745 115.175C108.745 113.95 108.496 113.021 107.998 112.389C107.505 111.75 106.776 111.431 105.809 111.431C104.854 111.431 104.133 111.744 103.647 112.371C103.161 112.998 102.917 113.933 102.917 115.175ZM122.288 120.176C120.864 120.176 119.739 119.742 118.913 118.875C118.093 118.008 117.682 116.804 117.682 115.263C117.682 113.71 118.063 112.477 118.825 111.562C119.593 110.648 120.621 110.191 121.91 110.191C123.117 110.191 124.072 110.59 124.775 111.387C125.478 112.178 125.83 113.224 125.83 114.524V115.447H119.194C119.223 116.578 119.508 117.437 120.047 118.022C120.592 118.608 121.356 118.901 122.341 118.901C123.378 118.901 124.403 118.685 125.417 118.251V119.552C124.901 119.774 124.412 119.933 123.949 120.026C123.492 120.126 122.938 120.176 122.288 120.176ZM121.892 111.413C121.119 111.413 120.501 111.665 120.038 112.169C119.581 112.673 119.311 113.37 119.229 114.261H124.265C124.265 113.341 124.06 112.638 123.65 112.151C123.24 111.659 122.654 111.413 121.892 111.413ZM130.145 120H128.686V110.367H130.145V120ZM128.563 107.757C128.563 107.423 128.645 107.18 128.809 107.027C128.973 106.869 129.178 106.79 129.424 106.79C129.659 106.79 129.861 106.869 130.031 107.027C130.201 107.186 130.286 107.429 130.286 107.757C130.286 108.085 130.201 108.331 130.031 108.495C129.861 108.653 129.659 108.732 129.424 108.732C129.178 108.732 128.973 108.653 128.809 108.495C128.645 108.331 128.563 108.085 128.563 107.757ZM134.97 110.367V116.616C134.97 117.401 135.148 117.987 135.506 118.374C135.863 118.761 136.423 118.954 137.185 118.954C138.192 118.954 138.928 118.679 139.391 118.128C139.859 117.577 140.094 116.678 140.094 115.43V110.367H141.553V120H140.349L140.138 118.708H140.059C139.76 119.183 139.344 119.546 138.811 119.798C138.283 120.05 137.68 120.176 137 120.176C135.828 120.176 134.949 119.897 134.363 119.341C133.783 118.784 133.493 117.894 133.493 116.669V110.367H134.97ZM151.229 117.372C151.229 118.269 150.895 118.96 150.227 119.446C149.559 119.933 148.622 120.176 147.415 120.176C146.137 120.176 145.141 119.974 144.426 119.569V118.216C144.889 118.45 145.384 118.635 145.912 118.77C146.445 118.904 146.958 118.972 147.45 118.972C148.212 118.972 148.798 118.852 149.208 118.611C149.618 118.365 149.823 117.993 149.823 117.495C149.823 117.12 149.659 116.801 149.331 116.537C149.008 116.268 148.376 115.951 147.432 115.588C146.536 115.254 145.897 114.964 145.516 114.718C145.141 114.466 144.86 114.182 144.673 113.865C144.491 113.549 144.4 113.171 144.4 112.731C144.4 111.946 144.719 111.328 145.358 110.877C145.997 110.42 146.873 110.191 147.986 110.191C149.023 110.191 150.037 110.402 151.027 110.824L150.508 112.011C149.542 111.612 148.666 111.413 147.881 111.413C147.189 111.413 146.668 111.521 146.316 111.738C145.965 111.955 145.789 112.254 145.789 112.635C145.789 112.893 145.853 113.112 145.982 113.294C146.117 113.476 146.331 113.648 146.624 113.812C146.917 113.977 147.479 114.214 148.311 114.524C149.454 114.94 150.224 115.359 150.623 115.781C151.027 116.203 151.229 116.733 151.229 117.372ZM166.249 120V113.733C166.249 112.966 166.085 112.392 165.757 112.011C165.429 111.624 164.919 111.431 164.228 111.431C163.32 111.431 162.649 111.691 162.215 112.213C161.782 112.734 161.565 113.537 161.565 114.621V120H160.106V113.733C160.106 112.966 159.942 112.392 159.614 112.011C159.285 111.624 158.773 111.431 158.076 111.431C157.161 111.431 156.491 111.706 156.063 112.257C155.641 112.802 155.43 113.698 155.43 114.946V120H153.971V110.367H155.158L155.395 111.686H155.465C155.741 111.217 156.127 110.851 156.625 110.587C157.129 110.323 157.692 110.191 158.313 110.191C159.819 110.191 160.803 110.736 161.266 111.826H161.336C161.623 111.322 162.039 110.924 162.584 110.631C163.129 110.338 163.75 110.191 164.448 110.191C165.537 110.191 166.352 110.473 166.891 111.035C167.436 111.592 167.708 112.485 167.708 113.716V120H166.249ZM179.397 115.175C179.397 116.745 179.002 117.973 178.211 118.857C177.42 119.736 176.327 120.176 174.933 120.176C174.071 120.176 173.307 119.974 172.639 119.569C171.971 119.165 171.455 118.585 171.092 117.829C170.728 117.073 170.547 116.188 170.547 115.175C170.547 113.604 170.939 112.383 171.725 111.51C172.51 110.631 173.6 110.191 174.994 110.191C176.342 110.191 177.411 110.64 178.202 111.536C178.999 112.433 179.397 113.646 179.397 115.175ZM172.059 115.175C172.059 116.405 172.305 117.343 172.797 117.987C173.289 118.632 174.013 118.954 174.968 118.954C175.923 118.954 176.646 118.635 177.139 117.996C177.637 117.352 177.886 116.411 177.886 115.175C177.886 113.95 177.637 113.021 177.139 112.389C176.646 111.75 175.917 111.431 174.95 111.431C173.995 111.431 173.274 111.744 172.788 112.371C172.302 112.998 172.059 113.933 172.059 115.175ZM188.88 118.708H188.801C188.128 119.687 187.12 120.176 185.778 120.176C184.518 120.176 183.537 119.745 182.834 118.884C182.136 118.022 181.788 116.798 181.788 115.21C181.788 113.622 182.139 112.389 182.842 111.51C183.546 110.631 184.524 110.191 185.778 110.191C187.085 110.191 188.087 110.666 188.784 111.615H188.898L188.837 110.921L188.801 110.244V106.324H190.26V120H189.074L188.88 118.708ZM185.962 118.954C186.959 118.954 187.679 118.685 188.125 118.146C188.576 117.601 188.801 116.725 188.801 115.518V115.21C188.801 113.845 188.573 112.872 188.116 112.292C187.665 111.706 186.941 111.413 185.945 111.413C185.089 111.413 184.433 111.747 183.976 112.415C183.525 113.077 183.299 114.015 183.299 115.228C183.299 116.458 183.525 117.387 183.976 118.014C184.427 118.641 185.089 118.954 185.962 118.954ZM201.87 118.972C202.128 118.972 202.377 118.954 202.617 118.919C202.857 118.878 203.048 118.837 203.188 118.796V119.912C203.03 119.988 202.796 120.05 202.485 120.097C202.181 120.149 201.905 120.176 201.659 120.176C199.796 120.176 198.864 119.194 198.864 117.231V111.501H197.484V110.798L198.864 110.191L199.479 108.135H200.323V110.367H203.118V111.501H200.323V117.17C200.323 117.75 200.461 118.195 200.736 118.506C201.012 118.816 201.39 118.972 201.87 118.972ZM209.551 120.176C208.127 120.176 207.002 119.742 206.176 118.875C205.356 118.008 204.946 116.804 204.946 115.263C204.946 113.71 205.327 112.477 206.088 111.562C206.856 110.648 207.884 110.191 209.173 110.191C210.38 110.191 211.335 110.59 212.039 111.387C212.742 112.178 213.093 113.224 213.093 114.524V115.447H206.458C206.487 116.578 206.771 117.437 207.31 118.022C207.855 118.608 208.62 118.901 209.604 118.901C210.641 118.901 211.667 118.685 212.68 118.251V119.552C212.165 119.774 211.675 119.933 211.212 120.026C210.755 120.126 210.202 120.176 209.551 120.176ZM209.156 111.413C208.382 111.413 207.764 111.665 207.301 112.169C206.844 112.673 206.575 113.37 206.493 114.261H211.529C211.529 113.341 211.324 112.638 210.914 112.151C210.503 111.659 209.917 111.413 209.156 111.413ZM228.228 120V113.733C228.228 112.966 228.064 112.392 227.736 112.011C227.407 111.624 226.898 111.431 226.206 111.431C225.298 111.431 224.627 111.691 224.194 112.213C223.76 112.734 223.543 113.537 223.543 114.621V120H222.084V113.733C222.084 112.966 221.92 112.392 221.592 112.011C221.264 111.624 220.751 111.431 220.054 111.431C219.14 111.431 218.469 111.706 218.041 112.257C217.619 112.802 217.408 113.698 217.408 114.946V120H215.949V110.367H217.136L217.373 111.686H217.444C217.719 111.217 218.106 110.851 218.604 110.587C219.108 110.323 219.67 110.191 220.291 110.191C221.797 110.191 222.781 110.736 223.244 111.826H223.315C223.602 111.322 224.018 110.924 224.563 110.631C225.108 110.338 225.729 110.191 226.426 110.191C227.516 110.191 228.33 110.473 228.869 111.035C229.414 111.592 229.687 112.485 229.687 113.716V120H228.228ZM237.544 120.176C236.917 120.176 236.343 120.062 235.821 119.833C235.305 119.599 234.872 119.241 234.52 118.761H234.415C234.485 119.323 234.52 119.856 234.52 120.36V124.324H233.061V110.367H234.248L234.45 111.686H234.52C234.895 111.158 235.332 110.777 235.83 110.543C236.328 110.309 236.899 110.191 237.544 110.191C238.821 110.191 239.805 110.628 240.497 111.501C241.194 112.374 241.543 113.599 241.543 115.175C241.543 116.757 241.188 117.987 240.479 118.866C239.776 119.739 238.798 120.176 237.544 120.176ZM237.333 111.431C236.348 111.431 235.637 111.703 235.197 112.248C234.758 112.793 234.532 113.66 234.52 114.85V115.175C234.52 116.528 234.746 117.498 235.197 118.084C235.648 118.664 236.372 118.954 237.368 118.954C238.2 118.954 238.85 118.617 239.319 117.943C239.794 117.27 240.031 116.341 240.031 115.157C240.031 113.956 239.794 113.036 239.319 112.397C238.85 111.753 238.188 111.431 237.333 111.431ZM252.775 115.175C252.775 116.745 252.379 117.973 251.588 118.857C250.797 119.736 249.705 120.176 248.31 120.176C247.449 120.176 246.684 119.974 246.016 119.569C245.348 119.165 244.832 118.585 244.469 117.829C244.106 117.073 243.924 116.188 243.924 115.175C243.924 113.604 244.317 112.383 245.102 111.51C245.887 110.631 246.977 110.191 248.372 110.191C249.719 110.191 250.789 110.64 251.58 111.536C252.376 112.433 252.775 113.646 252.775 115.175ZM245.436 115.175C245.436 116.405 245.682 117.343 246.174 117.987C246.666 118.632 247.39 118.954 248.345 118.954C249.3 118.954 250.024 118.635 250.516 117.996C251.014 117.352 251.263 116.411 251.263 115.175C251.263 113.95 251.014 113.021 250.516 112.389C250.024 111.75 249.294 111.431 248.328 111.431C247.372 111.431 246.652 111.744 246.165 112.371C245.679 112.998 245.436 113.933 245.436 115.175ZM260.096 110.191C260.524 110.191 260.907 110.227 261.247 110.297L261.045 111.65C260.647 111.562 260.295 111.519 259.99 111.519C259.211 111.519 258.543 111.835 257.986 112.468C257.436 113.101 257.16 113.889 257.16 114.832V120H255.701V110.367H256.905L257.072 112.151H257.143C257.5 111.524 257.931 111.041 258.435 110.701C258.939 110.361 259.492 110.191 260.096 110.191ZM29.9278 145H28.4688V135.367H29.9278V145ZM28.3458 132.757C28.3458 132.423 28.4278 132.18 28.5919 132.027C28.7559 131.869 28.961 131.79 29.2071 131.79C29.4415 131.79 29.6436 131.869 29.8136 132.027C29.9835 132.186 30.0684 132.429 30.0684 132.757C30.0684 133.085 29.9835 133.331 29.8136 133.495C29.6436 133.653 29.4415 133.732 29.2071 133.732C28.961 133.732 28.7559 133.653 28.5919 133.495C28.4278 133.331 28.3458 133.085 28.3458 132.757ZM39.9734 145V138.769C39.9734 137.983 39.7946 137.397 39.4372 137.011C39.0798 136.624 38.5202 136.431 37.7585 136.431C36.7507 136.431 36.0124 136.703 35.5437 137.248C35.0749 137.793 34.8405 138.692 34.8405 139.946V145H33.3816V135.367H34.5681L34.8054 136.686H34.8757C35.1745 136.211 35.5935 135.845 36.1325 135.587C36.6716 135.323 37.2722 135.191 37.9343 135.191C39.0945 135.191 39.9675 135.473 40.5534 136.035C41.1394 136.592 41.4323 137.485 41.4323 138.716V145H39.9734ZM48.6478 145.176C47.2533 145.176 46.1722 144.748 45.4046 143.893C44.6429 143.031 44.2621 141.815 44.2621 140.245C44.2621 138.634 44.6488 137.389 45.4222 136.51C46.2015 135.631 47.3089 135.191 48.7445 135.191C49.2074 135.191 49.6703 135.241 50.1332 135.341C50.5961 135.44 50.9593 135.558 51.223 135.692L50.7748 136.932C50.4525 136.803 50.1009 136.697 49.7201 136.615C49.3392 136.527 49.0023 136.483 48.7093 136.483C46.7523 136.483 45.7738 137.731 45.7738 140.228C45.7738 141.411 46.0111 142.319 46.4857 142.952C46.9662 143.585 47.6752 143.901 48.6127 143.901C49.4154 143.901 50.2386 143.729 51.0824 143.383V144.675C50.4378 145.009 49.6263 145.176 48.6478 145.176ZM55.1953 145H53.7363V135.367H55.1953V145ZM53.6133 132.757C53.6133 132.423 53.6953 132.18 53.8594 132.027C54.0234 131.869 54.2285 131.79 54.4746 131.79C54.709 131.79 54.9111 131.869 55.0811 132.027C55.251 132.186 55.3359 132.429 55.3359 132.757C55.3359 133.085 55.251 133.331 55.0811 133.495C54.9111 133.653 54.709 133.732 54.4746 133.732C54.2285 133.732 54.0234 133.653 53.8594 133.495C53.6953 133.331 53.6133 133.085 53.6133 132.757ZM65.2057 143.708H65.1266C64.4528 144.687 63.445 145.176 62.1032 145.176C60.8434 145.176 59.862 144.745 59.1588 143.884C58.4616 143.022 58.1129 141.798 58.1129 140.21C58.1129 138.622 58.4645 137.389 59.1676 136.51C59.8707 135.631 60.8493 135.191 62.1032 135.191C63.4098 135.191 64.4118 135.666 65.109 136.615H65.2233L65.1618 135.921L65.1266 135.244V131.324H66.5856V145H65.3991L65.2057 143.708ZM62.2877 143.954C63.2838 143.954 64.0045 143.685 64.4498 143.146C64.901 142.601 65.1266 141.725 65.1266 140.518V140.21C65.1266 138.845 64.8981 137.872 64.4411 137.292C63.9899 136.706 63.2663 136.413 62.2702 136.413C61.4147 136.413 60.7584 136.747 60.3014 137.415C59.8502 138.077 59.6246 139.015 59.6246 140.228C59.6246 141.458 59.8502 142.387 60.3014 143.014C60.7526 143.641 61.4147 143.954 62.2877 143.954ZM71.5071 145H70.0481V135.367H71.5071V145ZM69.9251 132.757C69.9251 132.423 70.0071 132.18 70.1712 132.027C70.3352 131.869 70.5403 131.79 70.7864 131.79C71.0208 131.79 71.2229 131.869 71.3928 132.027C71.5628 132.186 71.6477 132.429 71.6477 132.757C71.6477 133.085 71.5628 133.331 71.3928 133.495C71.2229 133.653 71.0208 133.732 70.7864 133.732C70.5403 133.732 70.3352 133.653 70.1712 133.495C70.0071 133.331 69.9251 133.085 69.9251 132.757ZM81.5175 143.708H81.4384C80.7646 144.687 79.7568 145.176 78.415 145.176C77.1552 145.176 76.1737 144.745 75.4706 143.884C74.7734 143.022 74.4247 141.798 74.4247 140.21C74.4247 138.622 74.7763 137.389 75.4794 136.51C76.1825 135.631 77.1611 135.191 78.415 135.191C79.7216 135.191 80.7236 135.666 81.4208 136.615H81.5351L81.4736 135.921L81.4384 135.244V131.324H82.8974V145H81.7109L81.5175 143.708ZM78.5995 143.954C79.5956 143.954 80.3163 143.685 80.7616 143.146C81.2128 142.601 81.4384 141.725 81.4384 140.518V140.21C81.4384 138.845 81.2099 137.872 80.7528 137.292C80.3017 136.706 79.578 136.413 78.582 136.413C77.7265 136.413 77.0702 136.747 76.6132 137.415C76.162 138.077 75.9364 139.015 75.9364 140.228C75.9364 141.458 76.162 142.387 76.6132 143.014C77.0644 143.641 77.7265 143.954 78.5995 143.954ZM87.731 135.367V141.616C87.731 142.401 87.9097 142.987 88.2671 143.374C88.6246 143.761 89.1841 143.954 89.9459 143.954C90.9537 143.954 91.689 143.679 92.1519 143.128C92.6207 142.577 92.855 141.678 92.855 140.43V135.367H94.314V145H93.1099L92.899 143.708H92.8199C92.5211 144.183 92.105 144.546 91.5718 144.798C91.0445 145.05 90.441 145.176 89.7613 145.176C88.5894 145.176 87.7105 144.897 87.1246 144.341C86.5445 143.784 86.2545 142.894 86.2545 141.669V135.367H87.731ZM104.368 145V138.769C104.368 137.983 104.19 137.397 103.832 137.011C103.475 136.624 102.915 136.431 102.154 136.431C101.146 136.431 100.407 136.703 99.9387 137.248C99.4699 137.793 99.2355 138.692 99.2355 139.946V145H97.7766V135.367H98.9631L99.2004 136.686H99.2707C99.5695 136.211 99.9885 135.845 100.528 135.587C101.067 135.323 101.667 135.191 102.329 135.191C103.489 135.191 104.362 135.473 104.948 136.035C105.534 136.592 105.827 137.485 105.827 138.716V145H104.368ZM112.305 143.972C112.562 143.972 112.811 143.954 113.052 143.919C113.292 143.878 113.482 143.837 113.623 143.796V144.912C113.465 144.988 113.23 145.05 112.92 145.097C112.615 145.149 112.34 145.176 112.094 145.176C110.23 145.176 109.299 144.194 109.299 142.231V136.501H107.919V135.798L109.299 135.191L109.914 133.135H110.758V135.367H113.553V136.501H110.758V142.17C110.758 142.75 110.895 143.195 111.171 143.506C111.446 143.816 111.824 143.972 112.305 143.972ZM122.323 135.367V141.616C122.323 142.401 122.502 142.987 122.859 143.374C123.217 143.761 123.776 143.954 124.538 143.954C125.546 143.954 126.281 143.679 126.744 143.128C127.213 142.577 127.447 141.678 127.447 140.43V135.367H128.906V145H127.702L127.491 143.708H127.412C127.113 144.183 126.697 144.546 126.164 144.798C125.637 145.05 125.033 145.176 124.354 145.176C123.182 145.176 122.303 144.897 121.717 144.341C121.137 143.784 120.847 142.894 120.847 141.669V135.367H122.323ZM135.48 143.972C135.738 143.972 135.987 143.954 136.227 143.919C136.468 143.878 136.658 143.837 136.799 143.796V144.912C136.64 144.988 136.406 145.05 136.095 145.097C135.791 145.149 135.515 145.176 135.269 145.176C133.406 145.176 132.474 144.194 132.474 142.231V136.501H131.094V135.798L132.474 135.191L133.09 133.135H133.933V135.367H136.728V136.501H133.933V142.17C133.933 142.75 134.071 143.195 134.346 143.506C134.622 143.816 135 143.972 135.48 143.972ZM145.587 145H144.128V131.324H145.587V145ZM154.965 145L154.674 143.629H154.604C154.124 144.232 153.643 144.643 153.163 144.859C152.688 145.07 152.093 145.176 151.379 145.176C150.424 145.176 149.674 144.93 149.129 144.438C148.59 143.945 148.32 143.245 148.32 142.337C148.32 140.392 149.876 139.372 152.987 139.278L154.622 139.226V138.628C154.622 137.872 154.458 137.315 154.13 136.958C153.807 136.595 153.289 136.413 152.574 136.413C151.771 136.413 150.863 136.659 149.849 137.151L149.401 136.035C149.876 135.777 150.394 135.575 150.957 135.429C151.525 135.282 152.093 135.209 152.662 135.209C153.81 135.209 154.66 135.464 155.211 135.974C155.767 136.483 156.046 137.301 156.046 138.426V145H154.965ZM151.669 143.972C152.577 143.972 153.289 143.723 153.804 143.225C154.326 142.727 154.587 142.029 154.587 141.133V140.263L153.128 140.324C151.967 140.365 151.13 140.547 150.614 140.869C150.104 141.186 149.849 141.681 149.849 142.354C149.849 142.882 150.007 143.283 150.324 143.559C150.646 143.834 151.094 143.972 151.669 143.972ZM163.903 135.209C165.168 135.209 166.15 135.643 166.847 136.51C167.55 137.371 167.902 138.593 167.902 140.175C167.902 141.757 167.547 142.987 166.838 143.866C166.135 144.739 165.157 145.176 163.903 145.176C163.276 145.176 162.701 145.062 162.18 144.833C161.664 144.599 161.231 144.241 160.879 143.761H160.774L160.466 145H159.42V131.324H160.879V134.646C160.879 135.391 160.856 136.059 160.809 136.65H160.879C161.559 135.689 162.567 135.209 163.903 135.209ZM163.692 136.431C162.696 136.431 161.978 136.718 161.538 137.292C161.099 137.86 160.879 138.821 160.879 140.175C160.879 141.528 161.105 142.498 161.556 143.084C162.007 143.664 162.731 143.954 163.727 143.954C164.623 143.954 165.291 143.629 165.731 142.979C166.17 142.322 166.39 141.382 166.39 140.157C166.39 138.903 166.17 137.969 165.731 137.354C165.291 136.738 164.612 136.431 163.692 136.431ZM179.134 140.175C179.134 141.745 178.738 142.973 177.947 143.857C177.156 144.736 176.063 145.176 174.669 145.176C173.808 145.176 173.043 144.974 172.375 144.569C171.707 144.165 171.191 143.585 170.828 142.829C170.465 142.073 170.283 141.188 170.283 140.175C170.283 138.604 170.676 137.383 171.461 136.51C172.246 135.631 173.336 135.191 174.73 135.191C176.078 135.191 177.147 135.64 177.938 136.536C178.735 137.433 179.134 138.646 179.134 140.175ZM171.795 140.175C171.795 141.405 172.041 142.343 172.533 142.987C173.025 143.632 173.749 143.954 174.704 143.954C175.659 143.954 176.383 143.635 176.875 142.996C177.373 142.352 177.622 141.411 177.622 140.175C177.622 138.95 177.373 138.021 176.875 137.389C176.383 136.75 175.653 136.431 174.686 136.431C173.731 136.431 173.011 136.744 172.524 137.371C172.038 137.998 171.795 138.933 171.795 140.175ZM186.455 135.191C186.882 135.191 187.266 135.227 187.606 135.297L187.404 136.65C187.005 136.562 186.654 136.519 186.349 136.519C185.57 136.519 184.902 136.835 184.345 137.468C183.795 138.101 183.519 138.889 183.519 139.832V145H182.06V135.367H183.264L183.431 137.151H183.502C183.859 136.524 184.29 136.041 184.794 135.701C185.297 135.361 185.851 135.191 186.455 135.191ZM193.837 145.176C192.413 145.176 191.288 144.742 190.462 143.875C189.642 143.008 189.232 141.804 189.232 140.263C189.232 138.71 189.613 137.477 190.374 136.562C191.142 135.648 192.17 135.191 193.459 135.191C194.666 135.191 195.621 135.59 196.324 136.387C197.028 137.178 197.379 138.224 197.379 139.524V140.447H190.743C190.773 141.578 191.057 142.437 191.596 143.022C192.141 143.608 192.906 143.901 193.89 143.901C194.927 143.901 195.952 143.685 196.966 143.251V144.552C196.45 144.774 195.961 144.933 195.498 145.026C195.041 145.126 194.488 145.176 193.837 145.176ZM193.442 136.413C192.668 136.413 192.05 136.665 191.587 137.169C191.13 137.673 190.861 138.37 190.779 139.261H195.815C195.815 138.341 195.61 137.638 195.199 137.151C194.789 136.659 194.203 136.413 193.442 136.413ZM209.34 145.176C207.917 145.176 206.792 144.742 205.965 143.875C205.145 143.008 204.735 141.804 204.735 140.263C204.735 138.71 205.116 137.477 205.877 136.562C206.645 135.648 207.673 135.191 208.962 135.191C210.169 135.191 211.125 135.59 211.828 136.387C212.531 137.178 212.882 138.224 212.882 139.524V140.447H206.247C206.276 141.578 206.56 142.437 207.099 143.022C207.644 143.608 208.409 143.901 209.393 143.901C210.43 143.901 211.456 143.685 212.469 143.251V144.552C211.954 144.774 211.464 144.933 211.001 145.026C210.544 145.126 209.991 145.176 209.34 145.176ZM208.945 136.413C208.171 136.413 207.553 136.665 207.09 137.169C206.633 137.673 206.364 138.37 206.282 139.261H211.318C211.318 138.341 211.113 137.638 210.703 137.151C210.292 136.659 209.707 136.413 208.945 136.413ZM218.85 143.972C219.108 143.972 219.357 143.954 219.597 143.919C219.837 143.878 220.027 143.837 220.168 143.796V144.912C220.01 144.988 219.776 145.05 219.465 145.097C219.16 145.149 218.885 145.176 218.639 145.176C216.776 145.176 215.844 144.194 215.844 142.231V136.501H214.464V135.798L215.844 135.191L216.459 133.135H217.303V135.367H220.098V136.501H217.303V142.17C217.303 142.75 217.441 143.195 217.716 143.506C217.991 143.816 218.369 143.972 218.85 143.972ZM234.054 143.708H233.975C233.301 144.687 232.293 145.176 230.952 145.176C229.692 145.176 228.71 144.745 228.007 143.884C227.31 143.022 226.961 141.798 226.961 140.21C226.961 138.622 227.313 137.389 228.016 136.51C228.719 135.631 229.698 135.191 230.952 135.191C232.258 135.191 233.26 135.666 233.957 136.615H234.072L234.01 135.921L233.975 135.244V131.324H235.434V145H234.247L234.054 143.708ZM231.136 143.954C232.132 143.954 232.853 143.685 233.298 143.146C233.749 142.601 233.975 141.725 233.975 140.518V140.21C233.975 138.845 233.747 137.872 233.289 137.292C232.838 136.706 232.115 136.413 231.119 136.413C230.263 136.413 229.607 136.747 229.15 137.415C228.699 138.077 228.473 139.015 228.473 140.228C228.473 141.458 228.699 142.387 229.15 143.014C229.601 143.641 230.263 143.954 231.136 143.954ZM247.211 140.175C247.211 141.745 246.816 142.973 246.024 143.857C245.233 144.736 244.141 145.176 242.746 145.176C241.885 145.176 241.12 144.974 240.452 144.569C239.784 144.165 239.269 143.585 238.905 142.829C238.542 142.073 238.36 141.188 238.36 140.175C238.36 138.604 238.753 137.383 239.538 136.51C240.323 135.631 241.413 135.191 242.808 135.191C244.155 135.191 245.225 135.64 246.016 136.536C246.813 137.433 247.211 138.646 247.211 140.175ZM239.872 140.175C239.872 141.405 240.118 142.343 240.61 142.987C241.103 143.632 241.826 143.954 242.781 143.954C243.736 143.954 244.46 143.635 244.952 142.996C245.45 142.352 245.699 141.411 245.699 140.175C245.699 138.95 245.45 138.021 244.952 137.389C244.46 136.75 243.731 136.431 242.764 136.431C241.809 136.431 241.088 136.744 240.602 137.371C240.115 137.998 239.872 138.933 239.872 140.175ZM251.596 145H250.137V131.324H251.596V145ZM263.365 140.175C263.365 141.745 262.969 142.973 262.178 143.857C261.387 144.736 260.294 145.176 258.9 145.176C258.038 145.176 257.274 144.974 256.606 144.569C255.938 144.165 255.422 143.585 255.059 142.829C254.696 142.073 254.514 141.188 254.514 140.175C254.514 138.604 254.907 137.383 255.692 136.51C256.477 135.631 257.567 135.191 258.961 135.191C260.309 135.191 261.378 135.64 262.169 136.536C262.966 137.433 263.365 138.646 263.365 140.175ZM256.026 140.175C256.026 141.405 256.272 142.343 256.764 142.987C257.256 143.632 257.98 143.954 258.935 143.954C259.89 143.954 260.614 143.635 261.106 142.996C261.604 142.352 261.853 141.411 261.853 140.175C261.853 138.95 261.604 138.021 261.106 137.389C260.614 136.75 259.884 136.431 258.917 136.431C257.962 136.431 257.242 136.744 256.755 137.371C256.269 137.998 256.026 138.933 256.026 140.175ZM270.686 135.191C271.113 135.191 271.497 135.227 271.837 135.297L271.635 136.65C271.236 136.562 270.885 136.519 270.58 136.519C269.801 136.519 269.133 136.835 268.576 137.468C268.025 138.101 267.75 138.889 267.75 139.832V145H266.291V135.367H267.495L267.662 137.151H267.732C268.09 136.524 268.521 136.041 269.024 135.701C269.528 135.361 270.082 135.191 270.686 135.191ZM278.068 145.176C276.644 145.176 275.519 144.742 274.693 143.875C273.873 143.008 273.463 141.804 273.463 140.263C273.463 138.71 273.843 137.477 274.605 136.562C275.373 135.648 276.401 135.191 277.69 135.191C278.897 135.191 279.852 135.59 280.555 136.387C281.258 137.178 281.61 138.224 281.61 139.524V140.447H274.974C275.004 141.578 275.288 142.437 275.827 143.022C276.372 143.608 277.136 143.901 278.121 143.901C279.158 143.901 280.183 143.685 281.197 143.251V144.552C280.681 144.774 280.192 144.933 279.729 145.026C279.272 145.126 278.718 145.176 278.068 145.176ZM277.673 136.413C276.899 136.413 276.281 136.665 275.818 137.169C275.361 137.673 275.091 138.37 275.009 139.261H280.046C280.046 138.341 279.84 137.638 279.43 137.151C279.02 136.659 278.434 136.413 277.673 136.413ZM284.255 144.068C284.255 143.676 284.343 143.38 284.519 143.181C284.7 142.976 284.958 142.873 285.292 142.873C285.632 142.873 285.896 142.976 286.083 143.181C286.277 143.38 286.373 143.676 286.373 144.068C286.373 144.449 286.277 144.742 286.083 144.947C285.89 145.152 285.626 145.255 285.292 145.255C284.993 145.255 284.744 145.164 284.545 144.982C284.352 144.795 284.255 144.49 284.255 144.068Z" fill="white"/>
<ellipse cx="19.164" cy="8.27538" rx="2.61328" ry="3.04882" fill="#E01515"/>
<circle cx="28.3105" cy="8.27538" r="3.04882" fill="#D9A404"/>
<circle cx="37.8925" cy="8.27538" r="3.04882" fill="#61CDBB"/>
<rect x="17" y="43" width="291" height="123" fill="black"/>
</svg>
