<svg width="70" height="70" viewBox="0 0 70 70" fill="none" xmlns="http://www.w3.org/2000/svg">
<path d="M49.2188 12.5563L47.0313 16.3406C51.6186 18.9891 55.2038 23.0773 57.2309 27.9711C59.2579 32.8648 59.6136 38.2907 58.2426 43.4072C56.8716 48.5237 53.8507 53.0449 49.6483 56.2695C45.446 59.494 40.297 61.2419 35 61.2419C29.703 61.2419 24.5541 59.494 20.3517 56.2695C16.1493 53.0449 13.1284 48.5237 11.7574 43.4072C10.3865 38.2907 10.7421 32.8648 12.7692 27.9711C14.7962 23.0773 18.3814 18.9891 22.9688 16.3406L20.7813 12.5563C15.3599 15.6863 11.1228 20.5178 8.72719 26.3013C6.33156 32.0849 5.91127 38.4973 7.53149 44.544C9.15172 50.5908 12.7219 55.934 17.6884 59.7449C22.6548 63.5557 28.7399 65.6214 35 65.6214C41.2601 65.6214 47.3452 63.5557 52.3117 59.7449C57.2781 55.934 60.8483 50.5908 62.4685 44.544C64.0887 38.4973 63.6685 32.0849 61.2728 26.3013C58.8772 20.5178 54.6401 15.6863 49.2188 12.5563Z" fill="white"/>
<path d="M32.8125 4.375H37.1875V35H32.8125V4.375Z" fill="white"/>
</svg>
