<svg width="600" height="325" viewBox="0 0 600 325" fill="none" xmlns="http://www.w3.org/2000/svg">
<g filter="url(#filter0_bd)">
<rect x="45" y="45" width="500" height="225" rx="30" fill="#504E64" fill-opacity="0.7"/>
</g>
<path d="M454 97.8333V103.667H448.583C446.484 103.667 444.47 104.501 442.985 105.985C441.501 107.47 440.667 109.484 440.667 111.583V142.417C440.667 144.516 441.501 146.53 442.985 148.015C444.47 149.499 446.484 150.333 448.583 150.333H486.083C486.4 150.333 486.71 150.315 487.017 150.278C486.323 149.768 485.598 149.187 484.87 148.532C484.048 147.794 483.275 147.004 482.555 146.167H448.583C447.589 146.167 446.635 145.772 445.932 145.068C445.229 144.365 444.833 143.411 444.833 142.417V111.583C444.833 110.589 445.229 109.635 445.932 108.932C446.635 108.228 447.589 107.833 448.583 107.833H486.083C487.078 107.833 488.032 108.228 488.735 108.932C489.438 109.635 489.833 110.589 489.833 111.583V115.807C490.121 115.556 490.404 115.301 490.682 115.04L490.753 114.973L490.765 114.96C491.63 114.119 492.793 113.654 494 113.667V111.583C494 109.484 493.166 107.47 491.681 105.985C490.197 104.501 488.183 103.667 486.083 103.667H480.667V97.8333C480.667 94.2971 479.262 90.9057 476.762 88.4052C474.261 85.9048 470.87 84.5 467.333 84.5C463.797 84.5 460.406 85.9048 457.905 88.4052C455.405 90.9057 454 94.2971 454 97.8333V97.8333ZM467.333 88.6667C469.765 88.6667 472.096 89.6324 473.815 91.3515C475.534 93.0706 476.5 95.4022 476.5 97.8333V103.667H458.167V97.8333C458.167 95.4022 459.133 93.0706 460.852 91.3515C462.571 89.6324 464.902 88.6667 467.333 88.6667V88.6667Z" fill="white"/>
<path d="M472.333 127C472.333 128.326 471.807 129.598 470.869 130.536C469.931 131.473 468.66 132 467.333 132C466.007 132 464.736 131.473 463.798 130.536C462.86 129.598 462.333 128.326 462.333 127C462.333 125.674 462.86 124.402 463.798 123.464C464.736 122.527 466.007 122 467.333 122C468.66 122 469.931 122.527 470.869 123.464C471.807 124.402 472.333 125.674 472.333 127Z" fill="white"/>
<path d="M480.667 123.267V132.833C480.667 143.638 491.19 149.163 493.537 150.26C493.681 150.329 493.838 150.364 493.998 150.364C494.157 150.364 494.315 150.329 494.458 150.26C496.807 149.17 507.333 143.683 507.333 133.188V123.267C507.33 122.93 507.196 122.608 506.959 122.369C506.723 122.129 506.403 121.99 506.067 121.982C504.463 121.927 501.688 121.725 499.832 121C498.105 120.327 496.11 118.55 494.957 117.425C494.699 117.178 494.356 117.04 493.999 117.04C493.642 117.04 493.299 117.178 493.042 117.425C491.888 118.55 489.892 120.325 488.167 121C486.312 121.725 483.537 121.927 481.933 121.982C481.597 121.99 481.277 122.129 481.041 122.369C480.805 122.608 480.671 122.93 480.667 123.267V123.267Z" fill="white"/>
<line x1="75.5" y1="120.5" x2="117.5" y2="120.5" stroke="#BC1616" stroke-width="3" stroke-linecap="round"/>
<defs>
<filter id="filter0_bd" x="0" y="0" width="600" height="325" filterUnits="userSpaceOnUse" color-interpolation-filters="sRGB">
<feFlood flood-opacity="0" result="BackgroundImageFix"/>
<feGaussianBlur in="BackgroundImage" stdDeviation="20"/>
<feComposite in2="SourceAlpha" operator="in" result="effect1_backgroundBlur"/>
<feColorMatrix in="SourceAlpha" type="matrix" values="0 0 0 0 0 0 0 0 0 0 0 0 0 0 0 0 0 0 127 0"/>
<feMorphology radius="10" operator="dilate" in="SourceAlpha" result="effect2_dropShadow"/>
<feOffset dx="5" dy="5"/>
<feGaussianBlur stdDeviation="20"/>
<feColorMatrix type="matrix" values="0 0 0 0 0 0 0 0 0 0 0 0 0 0 0 0 0 0 0.5 0"/>
<feBlend mode="normal" in2="effect1_backgroundBlur" result="effect2_dropShadow"/>
<feBlend mode="normal" in="SourceGraphic" in2="effect2_dropShadow" result="shape"/>
</filter>
</defs>
</svg>
