<svg width="68" height="67" viewBox="0 0 68 67" fill="none" xmlns="http://www.w3.org/2000/svg">
<path d="M14 13.8333V19.6667H8.58333C6.4837 19.6667 4.47007 20.5007 2.9854 21.9854C1.50074 23.4701 0.666664 25.4837 0.666664 27.5833V58.4167C0.666664 60.5163 1.50074 62.5299 2.9854 64.0146C4.47007 65.4993 6.4837 66.3333 8.58333 66.3333H46.0833C46.4 66.3333 46.71 66.315 47.0167 66.2783C46.3233 65.7683 45.5983 65.1867 44.87 64.5317C44.0483 63.7939 43.2751 63.0039 42.555 62.1667H8.58333C7.58877 62.1667 6.63494 61.7716 5.93168 61.0683C5.22842 60.3651 4.83333 59.4112 4.83333 58.4167V27.5833C4.83333 26.5888 5.22842 25.6349 5.93168 24.9317C6.63494 24.2284 7.58877 23.8333 8.58333 23.8333H46.0833C47.0779 23.8333 48.0317 24.2284 48.735 24.9317C49.4382 25.6349 49.8333 26.5888 49.8333 27.5833V31.8067C50.1207 31.5563 50.4035 31.3007 50.6817 31.04L50.7533 30.9733L50.765 30.96C51.6303 30.1188 52.7932 29.6539 54 29.6667V27.5833C54 25.4837 53.1659 23.4701 51.6813 21.9854C50.1966 20.5007 48.183 19.6667 46.0833 19.6667H40.6667V13.8333C40.6667 10.2971 39.2619 6.90573 36.7614 4.40524C34.2609 1.90476 30.8696 0.5 27.3333 0.5C23.7971 0.5 20.4057 1.90476 17.9052 4.40524C15.4048 6.90573 14 10.2971 14 13.8333ZM27.3333 4.66667C29.7645 4.66667 32.0961 5.63244 33.8151 7.35152C35.5342 9.07061 36.5 11.4022 36.5 13.8333V19.6667H18.1667V13.8333C18.1667 11.4022 19.1324 9.07061 20.8515 7.35152C22.5706 5.63244 24.9022 4.66667 27.3333 4.66667Z" fill="white"/>
<path d="M32.3333 43C32.3333 44.3261 31.8065 45.5978 30.8689 46.5355C29.9312 47.4732 28.6594 48 27.3333 48C26.0072 48 24.7355 47.4732 23.7978 46.5355C22.8601 45.5978 22.3333 44.3261 22.3333 43C22.3333 41.6739 22.8601 40.4021 23.7978 39.4645C24.7355 38.5268 26.0072 38 27.3333 38C28.6594 38 29.9312 38.5268 30.8689 39.4645C31.8065 40.4021 32.3333 41.6739 32.3333 43Z" fill="white"/>
<path d="M40.6667 39.2666V48.8333C40.6667 59.6383 51.19 65.1633 53.5367 66.26C53.6806 66.3287 53.838 66.3643 53.9975 66.3643C54.157 66.3643 54.3144 66.3287 54.4583 66.26C56.8067 65.17 67.3333 59.6833 67.3333 49.1883V39.2666C67.3296 38.9302 67.1955 38.6082 66.9592 38.3686C66.723 38.129 66.4031 37.9902 66.0667 37.9816C64.4633 37.9266 61.6883 37.725 59.8317 37C58.105 36.3266 56.11 34.55 54.9567 33.425C54.6991 33.178 54.356 33.04 53.9992 33.04C53.6423 33.04 53.2992 33.178 53.0417 33.425C51.8883 34.55 49.8917 36.325 48.1667 37C46.3117 37.725 43.5367 37.9266 41.9333 37.9816C41.5969 37.9902 41.277 38.129 41.0408 38.3686C40.8045 38.6082 40.6704 38.9302 40.6667 39.2666Z" fill="white"/>
</svg>
