<svg width="71" height="70" viewBox="0 0 71 70" fill="none" xmlns="http://www.w3.org/2000/svg">
<path d="M61.25 4.375C62.4103 4.375 63.5231 4.83594 64.3436 5.65641C65.1641 6.47688 65.625 7.58968 65.625 8.75L66.625 61.25C66.625 62.4103 66.1641 63.5231 65.3436 64.3436C64.5231 65.1641 63.4103 65.625 62.25 65.625H9.75C8.58968 65.625 7.47688 65.1641 6.65641 64.3436C5.83594 63.5231 5.375 62.4103 5.375 61.25L4.375 8.75C4.375 7.58968 4.83594 6.47688 5.65641 5.65641C6.47688 4.83594 7.58968 4.375 8.75 4.375L61.25 4.375ZM8.75 0C6.42936 0 4.20376 0.921873 2.56282 2.56282C0.921873 4.20376 0 6.42936 0 8.75L1 61.25C1 63.5706 1.92187 65.7962 3.56282 67.4372C5.20376 69.0781 7.42936 70 9.75 70H62.25C64.5707 70 66.7962 69.0781 68.4372 67.4372C70.0781 65.7962 71 63.5706 71 61.25L70 8.75C70 6.42936 69.0781 4.20376 67.4372 2.56282C65.7962 0.921873 63.5706 0 61.25 0L8.75 0Z" fill="#424242" fill-opacity="0.1"/>
</svg>
