<svg width="111" height="20" viewBox="0 0 111 20" fill="none" xmlns="http://www.w3.org/2000/svg">
<path d="M11.7338 20C10.945 20.0009 10.18 19.7302 9.56738 19.2334L1.06849 12.2174C0.735212 11.9521 0.46606 11.615 0.281066 11.2313C0.0960718 10.8475 0 10.427 0 10.001C0 9.57496 0.0960718 9.15443 0.281066 8.77069C0.46606 8.38694 0.735212 8.04986 1.06849 7.78452L9.56738 0.768538C10.079 0.358568 10.6956 0.10058 11.3467 0.0239725C11.9978 -0.0526348 12.6574 0.0552199 13.2502 0.335247C13.7655 0.562357 14.2044 0.932977 14.5147 1.40284C14.825 1.87271 14.9934 2.42195 15 2.98499V17.017C14.9934 17.58 14.825 18.1292 14.5147 18.5991C14.2044 19.069 13.7655 19.4396 13.2502 19.6667C12.7738 19.8833 12.2571 19.9969 11.7338 20ZM3.63482 10.001L11.6671 16.667V3.48494L3.63482 10.001Z" fill="#61CDBB"/>
<path d="M59.7338 20C58.945 20.0009 58.18 19.7302 57.5674 19.2334L49.0685 12.2174C48.7352 11.9521 48.4661 11.615 48.2811 11.2313C48.0961 10.8475 48 10.427 48 10.001C48 9.57496 48.0961 9.15443 48.2811 8.77069C48.4661 8.38694 48.7352 8.04986 49.0685 7.78452L57.5674 0.768538C58.079 0.358568 58.6956 0.10058 59.3467 0.0239725C59.9978 -0.0526348 60.6574 0.0552199 61.2502 0.335247C61.7655 0.562357 62.2044 0.932977 62.5147 1.40284C62.825 1.87271 62.9934 2.42195 63 2.98499V17.017C62.9934 17.58 62.825 18.1292 62.5147 18.5991C62.2044 19.069 61.7655 19.4396 61.2502 19.6667C60.7738 19.8833 60.2571 19.9969 59.7338 20ZM51.6348 10.001L59.6671 16.667V3.48494L51.6348 10.001Z" fill="#61CDBB"/>
<path d="M107.734 20C106.945 20.0009 106.18 19.7302 105.567 19.2334L97.0685 12.2174C96.7352 11.9521 96.4661 11.615 96.2811 11.2313C96.0961 10.8475 96 10.427 96 10.001C96 9.57496 96.0961 9.15443 96.2811 8.77069C96.4661 8.38694 96.7352 8.04986 97.0685 7.78452L105.567 0.768538C106.079 0.358568 106.696 0.10058 107.347 0.0239725C107.998 -0.0526348 108.657 0.0552199 109.25 0.335247C109.765 0.562357 110.204 0.932977 110.515 1.40284C110.825 1.87271 110.993 2.42195 111 2.98499V17.017C110.993 17.58 110.825 18.1292 110.515 18.5991C110.204 19.069 109.765 19.4396 109.25 19.6667C108.774 19.8833 108.257 19.9969 107.734 20ZM99.6348 10.001L107.667 16.667V3.48494L99.6348 10.001Z" fill="#61CDBB"/>
</svg>
