<svg width="150" height="128" viewBox="0 0 150 128" fill="none" xmlns="http://www.w3.org/2000/svg">
<path d="M80.4335 3.77288C79.8616 2.81671 79.0371 2.02235 78.0432 1.46997C77.0494 0.917578 75.9215 0.626709 74.7732 0.626709C73.625 0.626709 72.497 0.917578 71.5032 1.46997C70.5094 2.02235 69.6849 2.81671 69.1129 3.77288L0.867614 117.858C0.297379 118.811 -0.00182707 119.892 8.39406e-06 120.991C0.00184386 122.09 0.304657 123.17 0.878071 124.121C1.45149 125.073 2.27534 125.862 3.26699 126.412C4.25864 126.961 5.38323 127.25 6.52793 127.25H143.019C144.163 127.25 145.288 126.961 146.279 126.412C147.271 125.862 148.095 125.073 148.668 124.121C149.242 123.17 149.544 122.09 149.546 120.991C149.548 119.892 149.249 118.811 148.679 117.858L80.4335 3.77288ZM13.295 117.219L74.7732 14.4467L136.251 117.219H13.295Z" fill="#424242" fill-opacity="0.1"/>
</svg>
