<svg width="64" height="76" viewBox="0 0 64 76" fill="none" xmlns="http://www.w3.org/2000/svg">
<path d="M31.9167 0.583989C33.0319 0.583989 34.1301 0.66398 35.1517 0.852193C36.1578 0.997929 37.1505 1.24039 38.1185 1.57681C39.089 1.90148 40.0382 2.30614 40.9874 2.81431C41.9111 3.29896 42.8603 3.89183 43.8095 4.53646C45.4143 5.66574 46.9935 6.57857 48.6024 7.3079C51.7699 8.7093 55.1194 9.54321 58.5245 9.7782C60.2527 9.91465 62.0277 9.99464 63.875 9.99464V28.8159C63.875 32.392 63.4621 35.7798 62.6363 39.0077C61.8431 42.1895 60.716 45.2578 59.2779 48.1501C57.8459 51.0384 56.1515 53.758 54.2211 56.2668C52.261 58.8327 50.1388 61.2416 47.8703 63.4754C45.5718 65.7158 43.151 67.7979 40.6214 69.7099C38.093 71.6485 35.539 73.4507 32.9851 75.0881L31.9635 75.761L30.9419 75.0881C28.3165 73.4079 25.752 71.6137 23.2546 69.7099C20.7108 67.8194 18.2887 65.7363 16.0056 63.4754C13.7385 61.2415 11.6177 58.8326 9.6591 56.2668C7.73382 53.7474 6.0319 51.0293 4.57676 48.1501C3.16328 45.2449 2.0373 42.1797 1.21832 39.0077C0.387312 35.6892 -0.0224013 32.2591 0.000944113 28.8159V9.99464C1.85255 9.99464 3.62754 9.91465 5.35571 9.7782C7.05689 9.64758 8.74706 9.37865 10.4125 8.97359C12.0428 8.56893 13.673 8.03252 15.2778 7.3079C16.9429 6.565 18.5395 5.64635 20.0451 4.56469C21.918 3.21897 23.8164 2.22615 25.6893 1.57211C27.7064 0.888572 29.8072 0.555232 31.9167 0.583989ZM59.5929 14.62C56.3708 14.4472 53.1787 13.8517 50.0837 12.8461C47.0051 11.8309 44.0728 10.3369 41.3748 8.40895C39.9753 7.39352 38.4555 6.59704 36.8586 6.04217C35.2633 5.50922 33.6044 5.24588 31.938 5.26108C30.2592 5.24908 28.588 5.5123 26.9791 6.04217C25.3798 6.57901 23.8619 7.37672 22.4756 8.40895C19.7729 10.3474 16.833 11.848 13.7454 12.8649C10.7275 13.8342 7.56912 14.4271 4.25751 14.6435V28.8395C4.25751 31.9591 4.62358 34.9423 5.35571 37.8172C6.10157 40.6672 7.12935 43.4176 8.42044 46.0186C9.72699 48.6467 11.2669 51.1245 13.0175 53.4154C14.7925 55.7257 16.6867 57.876 18.7298 59.9181C20.773 61.965 22.914 63.8471 25.153 65.5928C27.4132 67.3432 29.6777 68.9288 31.938 70.3781C34.2523 68.8887 36.5089 67.2922 38.7017 65.5928C40.9554 63.8526 43.1078 61.9573 45.1461 59.9181C47.1893 57.876 49.0877 55.7257 50.8627 53.4154C52.6134 51.1247 54.1534 48.6468 55.4598 46.0186C56.7451 43.4209 57.7577 40.6692 58.4777 37.8172C59.232 34.8981 59.6075 31.8753 59.5929 28.8395V14.62Z" fill="white"/>
<path fill-rule="evenodd" clip-rule="evenodd" d="M47.7851 22.741L45.9122 20.9624L44.1841 21.1271L25.6254 45.3503L19.3044 35.3749L17.6018 35.055L15.631 36.6125L15.3373 38.4946L23.4631 51.3214L24.3868 51.8861L26.332 52.0178L27.328 51.5379L47.9086 24.6467L47.7851 22.741Z" fill="white"/>
</svg>
